<?xml version="1.0" encoding="UTF-8"?> <svg xmlns="http://www.w3.org/2000/svg" xmlns:xlink="http://www.w3.org/1999/xlink" preserveAspectRatio="xMidYMid" width="8000" height="2170" viewBox="0 0 8000 2170"> <defs> <style> .cls-1 { fill: #e4e4e4; } .cls-1, .cls-2, .cls-3, .cls-4, .cls-5, .cls-6 { fill-rule: evenodd; } .cls-2 { fill: #00639e; } .cls-3 { fill: #46c4df; } .cls-4 { fill: #fff; } .cls-5 { fill: #006a9f; } .cls-6 { fill: #fc3636; } </style> </defs> <g> <path d="M3637.268,128.000 C3692.469,128.000 3723.000,128.000 3723.000,128.000 L3723.000,154.465 L3637.268,128.000 ZM761.000,914.000 C1357.112,1688.061 1889.000,1741.000 1889.000,1741.000 C1909.476,1744.626 1899.000,1757.000 1899.000,1757.000 L1662.999,1817.000 C1550.722,1842.831 1659.072,1921.114 1702.660,1949.000 L373.000,1949.000 L373.000,442.314 L761.000,914.000 ZM3162.000,792.000 C3162.000,792.000 2938.295,1421.485 2514.000,1477.000 C2089.704,1532.514 1676.564,857.685 1460.999,570.000 C1245.435,282.315 810.999,130.000 810.999,130.000 L811.634,128.000 C1551.833,128.000 3018.840,128.000 3536.677,128.000 C3368.718,274.942 3162.000,792.000 3162.000,792.000 ZM3310.000,1707.000 C3395.766,1546.672 3124.000,1509.000 3124.000,1509.000 C3478.087,1334.891 3673.020,976.289 3723.000,873.873 L3723.000,1949.000 L2521.334,1949.000 C3024.403,1647.923 3310.000,1707.000 3310.000,1707.000 Z" class="cls-1"></path> <path d="M2912.000,1569.000 C2912.000,1569.000 3239.011,1508.057 3293.000,1670.000 C3293.000,1670.000 3025.000,1617.000 2499.000,1906.000 C1973.000,2195.000 1694.000,2097.000 1679.000,1998.000 C1679.000,1998.000 2219.000,1891.000 2398.000,1721.000 C2398.000,1721.000 1645.116,1916.066 913.000,1034.000 C198.272,172.884 252.012,198.188 152.542,23.143 L153.000,22.000 C153.000,22.000 628.581,68.442 1026.803,285.870 C1188.584,380.316 1342.489,507.375 1457.700,678.096 C1462.257,685.977 1466.706,693.934 1471.000,702.000 L1472.225,700.438 C1771.236,1188.720 2201.576,1633.085 2524.000,1523.000 C2862.311,1407.490 3071.788,1138.181 3199.999,808.000 C3328.212,477.819 3559.926,55.992 3767.999,-0.000 C3767.999,-0.000 4007.465,1136.719 2912.000,1569.000 Z" class="cls-2"></path> <path d="M2965.572,1549.391 C2964.107,1550.808 2959.996,1555.607 2971.509,1555.451 C3088.357,1543.199 3278.528,1543.203 3293.000,1670.000 C3293.000,1670.000 3155.515,1536.722 2604.000,1773.000 C2052.484,2009.277 1821.394,2020.610 1653.000,1857.000 C1653.000,1857.000 2143.565,1752.581 2214.000,1681.000 C2214.000,1681.000 1497.057,1808.000 702.000,674.000 C702.000,674.000 624.717,557.542 494.292,429.731 C412.595,327.908 169.487,152.940 145.002,135.429 C417.961,117.041 1011.816,130.535 1359.000,539.000 C1820.533,1082.000 2044.709,1517.000 2501.000,1523.000 C2957.291,1529.000 3301.810,770.000 3367.999,623.000 C3434.169,476.044 3571.851,215.158 3790.802,137.072 C3793.264,150.067 3795.161,162.082 3796.387,170.413 C3811.424,304.010 3865.500,1131.320 2965.572,1549.391 Z" class="cls-3"></path> <path d="M2807.934,1581.780 C2807.788,1588.623 2825.079,1604.186 3008.000,1582.000 C3234.732,1554.500 3241.000,1646.000 3241.000,1646.000 C3241.000,1646.000 3062.574,1611.000 2694.999,1780.000 C2327.425,1949.000 2162.414,2110.500 1870.000,1942.000 C1870.000,1942.000 2417.590,1777.500 2409.999,1693.000 L2411.634,1692.044 C2099.262,1720.431 1452.161,1647.464 830.999,758.000 C830.999,758.000 619.934,401.000 311.000,206.000 C311.000,206.000 967.447,144.395 1351.000,614.000 C1734.552,1083.605 2139.716,1658.535 2566.000,1569.000 C2992.284,1479.465 3194.000,896.000 3194.000,896.000 C3194.000,896.000 3409.955,322.039 3760.000,200.000 C3760.000,200.000 3888.655,1138.568 2807.934,1581.780 Z" class="cls-4"></path> <path d="M5594.132,1113.511 C5551.832,1169.311 5479.833,1201.711 5394.334,1201.711 C5270.134,1201.711 5182.835,1138.711 5146.835,1023.512 L5211.635,1023.512 C5262.034,1112.611 5309.734,1140.511 5392.534,1140.511 C5511.333,1140.511 5573.432,1071.211 5573.432,941.612 L5573.432,908.313 C5534.733,983.912 5473.533,1019.912 5385.334,1019.912 C5241.335,1019.912 5128.835,908.313 5128.835,764.314 C5128.835,615.815 5236.835,504.215 5380.834,504.215 C5463.633,504.215 5523.933,535.715 5573.432,603.215 L5573.432,515.915 L5640.032,515.915 L5640.032,920.012 C5640.032,1016.312 5627.432,1068.511 5594.132,1113.511 ZM5384.434,565.415 C5275.534,565.415 5196.335,646.414 5196.335,758.914 C5196.335,873.213 5277.334,958.712 5385.334,958.712 C5492.433,958.712 5573.432,871.413 5573.432,756.214 C5573.432,649.114 5490.633,565.415 5384.434,565.415 ZM4792.241,1019.912 C4710.342,1019.912 4643.742,986.612 4600.542,923.612 L4600.542,1181.011 L4533.943,1181.011 L4533.943,515.915 L4600.542,515.915 L4600.542,600.515 C4641.942,538.415 4710.342,504.215 4794.041,504.215 C4940.740,504.215 5053.239,616.715 5053.239,763.414 C5053.239,907.413 4938.940,1019.912 4792.241,1019.912 ZM4791.341,565.415 C4682.442,565.415 4596.042,650.914 4596.042,759.814 C4596.042,873.213 4679.742,958.712 4792.241,958.712 C4902.040,958.712 4985.740,874.113 4985.740,763.414 C4985.740,650.014 4902.040,565.415 4791.341,565.415 ZM4353.941,921.812 C4301.741,992.012 4247.742,1019.912 4164.042,1019.912 C4012.843,1019.912 3900.344,910.113 3900.344,763.414 C3900.344,615.815 4011.943,504.215 4159.542,504.215 C4245.042,504.215 4305.341,534.815 4353.941,603.215 L4353.941,515.915 L4420.541,515.915 L4420.541,1008.212 L4353.941,1008.212 L4353.941,921.812 ZM4161.342,565.415 C4054.243,565.415 3967.844,651.814 3967.844,758.914 C3967.844,871.413 4053.343,958.712 4164.942,958.712 C4271.142,958.712 4353.941,871.413 4353.941,759.814 C4353.941,650.014 4269.342,565.415 4161.342,565.415 Z" class="cls-5"></path> <path d="M5881.043,1008.212 L5881.043,893.013 L5761.344,893.013 L5761.344,1008.212 L5881.043,1008.212 Z" class="cls-6"></path> <path d="M7362.323,1631.564 L7362.323,1606.363 C7343.773,1627.363 7325.222,1636.114 7297.922,1636.114 C7241.221,1636.114 7200.270,1593.763 7200.270,1535.312 C7200.270,1476.161 7241.571,1433.110 7298.972,1433.110 C7326.972,1433.110 7346.223,1442.210 7362.323,1463.561 L7362.323,1437.660 L7405.024,1437.660 L7405.024,1631.564 L7362.323,1631.564 ZM7303.872,1475.811 C7270.621,1475.811 7247.171,1501.011 7247.171,1536.362 C7247.171,1570.312 7270.621,1593.413 7304.572,1593.413 C7339.923,1593.413 7360.923,1568.212 7360.923,1536.012 C7360.923,1500.661 7337.122,1475.811 7303.872,1475.811 ZM7125.024,1363.109 L7171.575,1363.109 L7171.575,1409.660 L7125.024,1409.660 L7125.024,1363.109 ZM7171.225,1631.564 L7124.674,1631.564 L7124.674,1437.660 L7171.225,1437.660 L7171.225,1631.564 ZM6995.526,1593.413 C7014.776,1593.413 7028.076,1585.713 7039.627,1567.862 L7092.128,1567.862 C7076.027,1611.263 7041.027,1636.114 6995.876,1636.114 C6938.475,1636.114 6892.274,1590.963 6892.274,1534.612 C6892.274,1477.561 6937.075,1433.110 6994.476,1433.110 C7038.577,1433.110 7077.077,1457.961 7092.128,1502.411 L7039.627,1502.411 C7030.176,1484.561 7015.476,1475.811 6994.476,1475.811 C6962.275,1475.811 6939.175,1500.311 6939.175,1534.262 C6939.175,1568.212 6963.325,1593.413 6995.526,1593.413 ZM6816.329,1536.712 C6816.329,1484.911 6802.329,1475.811 6779.229,1475.811 C6764.528,1475.811 6752.278,1482.111 6744.928,1493.661 C6738.978,1503.111 6737.228,1514.311 6737.228,1540.212 L6737.228,1631.564 L6690.677,1631.564 L6690.677,1437.660 L6733.728,1437.660 L6733.728,1456.210 C6750.878,1439.760 6766.278,1433.110 6788.329,1433.110 C6815.279,1433.110 6836.280,1442.910 6848.880,1461.111 C6859.380,1476.161 6862.880,1492.961 6862.880,1527.612 L6862.880,1631.564 L6816.329,1631.564 L6816.329,1536.712 ZM6508.678,1555.262 C6514.278,1578.713 6534.579,1593.413 6562.229,1593.413 C6581.480,1593.413 6593.030,1588.163 6604.930,1574.163 L6655.681,1574.163 C6642.731,1614.063 6602.480,1636.114 6563.279,1636.114 C6504.128,1636.114 6458.277,1592.013 6458.277,1535.312 C6458.277,1478.261 6503.428,1433.110 6560.479,1433.110 C6618.230,1433.110 6660.581,1477.211 6660.581,1537.412 C6660.581,1544.412 6660.231,1548.612 6658.831,1555.262 L6508.678,1555.262 ZM6561.179,1475.811 C6533.529,1475.811 6514.628,1489.461 6507.278,1514.311 L6614.730,1514.311 C6608.780,1489.461 6589.880,1475.811 6561.179,1475.811 ZM6561.179,1388.309 L6542.279,1410.710 L6490.828,1410.710 L6542.279,1362.409 L6579.730,1362.409 L6630.480,1410.710 L6579.730,1410.710 L6561.179,1388.309 ZM6382.681,1372.909 L6429.232,1372.909 L6429.232,1631.564 L6382.681,1631.564 L6382.681,1372.909 ZM6200.682,1555.262 C6206.282,1578.713 6226.582,1593.413 6254.233,1593.413 C6273.483,1593.413 6285.033,1588.163 6296.934,1574.163 L6347.684,1574.163 C6334.734,1614.063 6294.483,1636.114 6255.283,1636.114 C6196.132,1636.114 6150.281,1592.013 6150.281,1535.312 C6150.281,1478.261 6195.432,1433.110 6252.483,1433.110 C6310.234,1433.110 6352.584,1477.211 6352.584,1537.412 C6352.584,1544.412 6352.234,1548.612 6350.834,1555.262 L6200.682,1555.262 ZM6253.183,1475.811 C6225.532,1475.811 6206.632,1489.461 6199.282,1514.311 L6306.734,1514.311 C6300.784,1489.461 6281.883,1475.811 6253.183,1475.811 ZM6029.533,1593.413 C6048.783,1593.413 6062.083,1585.713 6073.634,1567.862 L6126.135,1567.862 C6110.034,1611.263 6075.034,1636.114 6029.883,1636.114 C5972.482,1636.114 5926.281,1590.963 5926.281,1534.612 C5926.281,1477.561 5971.082,1433.110 6028.483,1433.110 C6072.584,1433.110 6111.084,1457.961 6126.135,1502.411 L6073.634,1502.411 C6064.183,1484.561 6049.483,1475.811 6028.483,1475.811 C5996.282,1475.811 5973.182,1500.311 5973.182,1534.262 C5973.182,1568.212 5997.332,1593.413 6029.533,1593.413 ZM5867.834,1631.564 L5827.233,1565.062 L5786.632,1631.564 L5730.631,1631.564 L5799.233,1531.462 L5739.732,1437.660 L5792.232,1437.660 L5827.233,1496.111 L5861.534,1437.660 L5914.035,1437.660 L5854.884,1531.462 L5923.835,1631.564 L5867.834,1631.564 ZM5575.931,1555.262 C5581.531,1578.713 5601.831,1593.413 5629.481,1593.413 C5648.732,1593.413 5660.282,1588.163 5672.182,1574.163 L5722.933,1574.163 C5709.983,1614.063 5669.732,1636.114 5630.531,1636.114 C5571.380,1636.114 5525.530,1592.013 5525.530,1535.312 C5525.530,1478.261 5570.680,1433.110 5627.731,1433.110 C5685.482,1433.110 5727.833,1477.211 5727.833,1537.412 C5727.833,1544.412 5727.483,1548.612 5726.083,1555.262 L5575.931,1555.262 ZM5628.431,1475.811 C5600.781,1475.811 5581.881,1489.461 5574.530,1514.311 L5681.982,1514.311 C5676.032,1489.461 5657.132,1475.811 5628.431,1475.811 ZM5306.432,1636.114 C5249.731,1636.114 5203.530,1590.613 5203.530,1534.612 C5203.530,1478.961 5249.731,1433.110 5306.082,1433.110 C5364.533,1433.110 5409.684,1478.261 5409.684,1536.012 C5409.684,1590.613 5362.783,1636.114 5306.432,1636.114 ZM5306.432,1475.811 C5275.982,1475.811 5250.431,1502.061 5250.431,1533.912 C5250.431,1567.162 5275.282,1593.413 5306.782,1593.413 C5337.583,1593.413 5362.783,1567.162 5362.783,1534.612 C5362.783,1502.411 5337.583,1475.811 5306.432,1475.811 ZM5133.887,1606.363 C5115.337,1627.363 5096.087,1636.114 5069.836,1636.114 C5014.885,1636.114 4972.534,1591.663 4972.534,1534.262 C4972.534,1476.161 5015.235,1430.660 5069.486,1430.660 C5093.986,1430.660 5116.387,1439.760 5130.037,1454.810 L5130.037,1372.909 L5176.588,1372.909 L5176.588,1631.564 L5133.887,1631.564 L5133.887,1606.363 ZM5076.136,1473.361 C5044.286,1473.361 5019.435,1499.261 5019.435,1532.162 C5019.435,1566.462 5044.636,1593.413 5077.186,1593.413 C5108.687,1593.413 5133.537,1567.162 5133.537,1533.562 C5133.537,1499.611 5108.687,1473.361 5076.136,1473.361 ZM4896.590,1536.712 C4896.590,1484.911 4882.590,1475.811 4859.489,1475.811 C4844.789,1475.811 4832.539,1482.111 4825.189,1493.661 C4819.239,1503.111 4817.489,1514.311 4817.489,1540.212 L4817.489,1631.564 L4770.938,1631.564 L4770.938,1437.660 L4813.988,1437.660 L4813.988,1456.210 C4831.139,1439.760 4846.539,1433.110 4868.589,1433.110 C4895.540,1433.110 4916.540,1442.910 4929.140,1461.111 C4939.641,1476.161 4943.141,1492.961 4943.141,1527.612 L4943.141,1631.564 L4896.590,1631.564 L4896.590,1536.712 ZM4687.291,1363.109 L4733.842,1363.109 L4733.842,1409.660 L4687.291,1409.660 L4687.291,1363.109 ZM4733.492,1631.564 L4686.941,1631.564 L4686.941,1437.660 L4733.492,1437.660 L4733.492,1631.564 ZM4550.447,1708.915 C4502.846,1708.915 4466.445,1686.164 4450.695,1647.314 L4503.546,1647.314 C4517.196,1662.364 4530.496,1667.964 4552.197,1667.964 C4586.847,1667.964 4604.698,1647.664 4606.448,1606.013 C4588.247,1627.363 4570.047,1636.114 4542.747,1636.114 C4487.446,1636.114 4447.545,1593.063 4447.545,1533.212 C4447.545,1475.811 4488.146,1433.110 4543.097,1433.110 C4571.097,1433.110 4592.098,1442.560 4606.448,1462.161 L4606.448,1437.660 L4650.899,1437.660 L4650.899,1594.813 C4650.899,1678.114 4610.648,1708.915 4550.447,1708.915 ZM4548.347,1475.811 C4515.796,1475.811 4494.446,1499.611 4494.446,1535.312 C4494.446,1570.662 4515.796,1593.413 4549.047,1593.413 C4582.297,1593.413 4604.348,1570.312 4604.348,1535.312 C4604.348,1499.961 4581.597,1475.811 4548.347,1475.811 ZM4372.299,1363.109 L4418.849,1363.109 L4418.849,1409.660 L4372.299,1409.660 L4372.299,1363.109 ZM4418.499,1631.564 L4371.949,1631.564 L4371.949,1437.660 L4418.499,1437.660 L4418.499,1631.564 ZM4306.502,1523.762 L4306.502,1631.564 L4259.951,1631.564 L4259.951,1437.660 L4302.652,1437.660 L4302.652,1456.560 C4314.902,1438.710 4324.702,1433.110 4344.653,1433.110 L4348.153,1433.110 L4348.153,1477.911 C4320.152,1478.611 4306.502,1493.661 4306.502,1523.762 ZM4176.305,1363.109 L4222.856,1363.109 L4222.856,1409.660 L4176.305,1409.660 L4176.305,1363.109 ZM4222.506,1631.564 L4175.955,1631.564 L4175.955,1437.660 L4222.506,1437.660 L4222.506,1631.564 ZM4097.911,1606.363 C4079.361,1627.363 4060.111,1636.114 4033.860,1636.114 C3978.909,1636.114 3936.559,1591.663 3936.559,1534.262 C3936.559,1476.161 3979.259,1430.660 4033.510,1430.660 C4058.011,1430.660 4080.411,1439.760 4094.061,1454.810 L4094.061,1372.909 L4140.612,1372.909 L4140.612,1631.564 L4097.911,1631.564 L4097.911,1606.363 ZM4040.160,1473.361 C4008.310,1473.361 3983.459,1499.261 3983.459,1532.162 C3983.459,1566.462 4008.660,1593.413 4041.211,1593.413 C4072.711,1593.413 4097.561,1567.162 4097.561,1533.562 C4097.561,1499.611 4072.711,1473.361 4040.160,1473.361 Z" class="cls-3"></path> </g> </svg> 