<svg xmlns="http://www.w3.org/2000/svg" viewBox="0 0 118.05 102.41"><defs><style>.cls-1{fill:#fff;}</style></defs><title>Asset 15</title><g id="Layer_2" data-name="Layer 2"><g id="MainPage"><g id="Content"><g id="Serviços"><g id="Icones_black_and_white"><path class="cls-1" d="M0,3.69A3.69,3.69,0,0,0,3.69,7.38H14.56l13,71A12.69,12.69,0,1,0,45.87,89.7a12.55,12.55,0,0,0-1.21-5.33h34a12.55,12.55,0,0,0-1.21,5.33A12.71,12.71,0,1,0,90.14,77H34.8L33.39,69.3H99.16c6.66,0,11.09-5.37,12.53-10.69L118,24.3a3.11,3.11,0,0,0,.06-.44,3.69,3.69,0,0,0-3.34-3.95,5.4,5.4,0,0,0-1-.06L23.38,14.57,21.27,3c0-.14-.11-.25-.15-.38A3.36,3.36,0,0,0,20.84,2a3.76,3.76,0,0,0-.39-.59A3.54,3.54,0,0,0,20,.9a3.62,3.62,0,0,0-.61-.41,3.91,3.91,0,0,0-.59-.26A3.28,3.28,0,0,0,18,.08,2.45,2.45,0,0,0,17.64,0H3.69A3.69,3.69,0,0,0,0,3.69ZM27.7,38.18l16.49.5L45,47.74,29.4,47.49ZM106,48.69l-15.16-.23,1-8.35,15.62.46Zm-20.1-.31-16.14-.26V39.44L87,40ZM69.78,24.67l18.9,1.11-1.13,9.27-17.77-.53Zm-4.92,9.7-16.18-.48-1-10.51,17.17,1ZM85.31,53.29l-1,8.63H69.78V53ZM64.86,61.92H51.31l-.86-9.18L64.86,53ZM50,47.81l-.84-9,15.72.48v8.75ZM24.75,22l18,1.05,1,10.65-16.93-.51Zm85.31,5c-.46,2.17-1,5-1.66,8.65L92.48,35.2l1.12-9.13ZM99.16,61.92h-10l1.05-8.55,14.86.23L104.5,57C104.08,58.49,102.32,61.92,99.16,61.92ZM32,61.92l-1.73-9.5,15.19.24.87,9.26Zm58.1,22.45a5.33,5.33,0,1,1-5.33,5.33A5.33,5.33,0,0,1,90.14,84.37ZM27.84,89.7A5.33,5.33,0,1,1,33.17,95,5.33,5.33,0,0,1,27.84,89.7Z"/></g></g></g></g></g></svg>