<svg xmlns="http://www.w3.org/2000/svg" viewBox="0 0 88.97 84.57"><defs><style>.cls-1{fill:#fff;}.cls-2{fill:#a0a0a0;}.cls-3{fill:#b5b5b5;}.cls-4{fill:#f6f6f6;}.cls-5{fill:#bdbdbd;}</style></defs><title>Asset 15</title><g id="Layer_2" data-name="Layer 2"><g id="MainPage"><g id="Content"><g id="Serviços"><g id="Icones"><rect class="cls-1" x="1.97" width="78.01" height="84.57" rx="12" ry="12"/><path class="cls-2" d="M81.92,70.47l-.38,0-.24,0H9.15a9,9,0,0,1,0,14.1H81.92a7,7,0,0,0,0-14.1Z"/><rect class="cls-3" x="25.79" y="11.66" width="46.66" height="7.78" rx="3.89" ry="3.89"/><rect class="cls-3" x="9.26" y="32.32" width="63.18" height="7.78" rx="3.89" ry="3.89"/><rect class="cls-3" x="9.26" y="53.71" width="63.18" height="7.78" rx="3.89" ry="3.89"/><path class="cls-4" d="M0,36.84c0,.16-.07.58.15.75.55.4,1.92-1.22,4.29-1.5a2.29,2.29,0,0,1,1.37.15c.42.21.72.56,1.23,1.65.84,1.79,1,2.81,1.37,2.84s.54-.45.61-.6c.71-1.37,3.16-6.55,6.43-13.6a6.48,6.48,0,0,1-5.83.25,6.15,6.15,0,0,1-3.2-4.29C5.64,24.07.34,34.51,0,36.84Z"/><path class="cls-4" d="M30.92,36.84c0,.16.08.58-.15.75-.55.4-1.92-1.22-4.28-1.5a2.31,2.31,0,0,0-1.38.15c-.42.21-.72.56-1.22,1.65-.84,1.79-1,2.81-1.38,2.84s-.53-.45-.61-.6c-.71-1.37-3.16-6.55-6.42-13.6a6.45,6.45,0,0,0,5.82.25,6.12,6.12,0,0,0,3.2-4.29C25.3,24.07,30.6,34.51,30.92,36.84Z"/><path class="cls-2" d="M19.68,16.78a11.39,11.39,0,0,1-2.14,1.1,9.39,9.39,0,0,1-1.63.45,6.22,6.22,0,0,1-1.36.09,3.15,3.15,0,0,1-1.13-.25,1.75,1.75,0,0,1-.68-.52,1.53,1.53,0,0,1-.31-.82,2.32,2.32,0,0,1,.2-1.07,4.4,4.4,0,0,1,.69-1.16,8.53,8.53,0,0,1,1.46-1.42s0,0,0,0h0s0,0,0,0h0a7.51,7.51,0,0,0-.66.83,4.54,4.54,0,0,0-.58,1.14,2.11,2.11,0,0,0-.12.79A1.43,1.43,0,0,0,14,17.21a2.17,2.17,0,0,0,.81.35,4.65,4.65,0,0,0,1.34.11A9.82,9.82,0,0,0,19,17.05l.71-.29S19.68,16.77,19.68,16.78Z"/><path class="cls-4" d="M16.85,15.86a1.39,1.39,0,0,1-1.39,1.39,1.4,1.4,0,0,1-1.39-1.4,1.39,1.39,0,0,1,2.78,0Z"/><path class="cls-2" d="M14.72,13.43l.11-.13.18-.19a.1.1,0,0,1,.09,0c.32.08.63.18.94.29a7,7,0,0,1,1.52.76,3.87,3.87,0,0,1,.89.78,2.23,2.23,0,0,1,.45.83A1.65,1.65,0,0,1,18.71,17a.18.18,0,0,1-.07,0,10.83,10.83,0,0,1-1.38.38h0a.15.15,0,0,1,0-.06,1.82,1.82,0,0,0,.39-.67,1.61,1.61,0,0,0-.09-1.12,2.82,2.82,0,0,0-.62-.83,6,6,0,0,0-1.38-.95l-.78-.36Z"/><path class="cls-2" d="M18.32,14.63l-.23-.21a5.64,5.64,0,0,0-1.29-.82A10,10,0,0,0,15.22,13h-.07l0,0a3.43,3.43,0,0,1,1-.34,2,2,0,0,1,1,.1,1.68,1.68,0,0,1,.84.8,2.89,2.89,0,0,1,.25.82A1.24,1.24,0,0,1,18.32,14.63Z"/><path class="cls-2" d="M11.16,17.17a13.75,13.75,0,0,1,1.61-2.25,9.56,9.56,0,0,1,.9-.9h0v0a7.48,7.48,0,0,0-.62.75,4.71,4.71,0,0,0-.52.93l-.05.07a14.25,14.25,0,0,0-1.3,1.39l0,0S11.16,17.2,11.16,17.17Z"/><path class="cls-2" d="M13.8,14.73a.2.2,0,0,1,0-.08,6.16,6.16,0,0,1,.78-1.11s0,0,.07,0a7.91,7.91,0,0,1,.89.41h0A5,5,0,0,0,13.8,14.73Z"/><path class="cls-2" d="M12.25,12.74a11.88,11.88,0,0,1,2.59.28l-.16.12-.17.15a.11.11,0,0,1-.12,0c-.33-.12-.67-.22-1-.31S12.62,12.81,12.25,12.74Z"/><path class="cls-2" d="M17.66,18a5.31,5.31,0,0,1-1.07.46,8.08,8.08,0,0,1-1.38.3l-.68.07s-.09,0-.13,0c.31-.07.62-.15.92-.25l.24-.05a7,7,0,0,0,1.29-.27c.27-.08.53-.17.79-.27Z"/><path class="cls-2" d="M17.26,19c.08-.26.16-.53.23-.8a.07.07,0,0,1,0-.05l.16-.09a6.47,6.47,0,0,1-.42,1S17.26,19,17.26,19Z"/><path class="cls-4" d="M14.79,13.22s0,0,0,0a.71.71,0,0,1,.14-.1A.86.86,0,0,1,14.79,13.22Z"/><path class="cls-4" d="M11.16,17.17s0,0,0,0a.4.4,0,0,1-.1.12A.83.83,0,0,1,11.16,17.17Z"/><path class="cls-4" d="M13.7,14v0l.1-.07A.2.2,0,0,1,13.7,14Z"/><path class="cls-4" d="M17.66,18l0,0a.2.2,0,0,1,.11,0Z"/><path class="cls-4" d="M19.68,16.78s0,0,0,0l.09,0h0Z"/><path class="cls-4" d="M13.68,14h0Z"/><path class="cls-4" d="M14.77,13.23h0Z"/><path class="cls-4" d="M14.72,13.29h0Z"/><path class="cls-4" d="M14.73,13.28h0Z"/><path class="cls-4" d="M14.75,13.26h0Z"/><path class="cls-4" d="M14.76,13.25h0Z"/><path class="cls-5" d="M15.54,6.1c-5.79,0-9.64,5.2-9.73,9.73a10.06,10.06,0,0,0,2.76,6.66l.15.16a10.89,10.89,0,0,0,6.82,2.91c4.16.1,9.73-3.73,9.73-9.73A9.72,9.72,0,0,0,15.54,6.1Zm0,14.71a5,5,0,1,1,5-5A5,5,0,0,1,15.54,20.81Z"/></g></g></g></g></g></svg>