<svg xmlns="http://www.w3.org/2000/svg" viewBox="0 0 96.83 160"><defs><style>.cls-1{fill:#fff;}</style></defs><title>Asset 14</title><g id="Layer_2" data-name="Layer 2"><g id="MainPage"><g id="Content"><g id="Serviços"><g id="Icones_black_and_white"><polygon class="cls-1" points="2.77 91.3 8.76 93.14 9.22 140.63 11.07 142.02 17.52 142.02 19.55 140.87 18.91 96.83 19.37 93.14 77.92 93.6 77.92 130.03 79.31 131.87 88.99 131.87 88.99 94.06 93.6 92.68 95.45 91.3 2.77 91.3"/><polygon class="cls-1" points="43.34 0 58.56 0 58.56 71.01 69.63 71.01 69.63 79.31 64.55 79.31 64.55 82.54 36.43 82.54 36.43 78.39 31.35 78.39 31.35 71.01 36.43 71.01 38.73 71.01 40.58 71.01 42.42 71.01 42.88 0 43.34 0"/><polygon class="cls-1" points="31.35 78.39 31.35 79.31 2.31 79.31 0 83.92 0 87.61 2.77 91.3 47.49 91.3 47.49 82.54 36.43 82.54 36.43 78.39 31.35 78.39"/><polygon class="cls-1" points="53.26 82.54 53.03 91.3 95.43 91.3 96.83 87.61 96.83 84.84 93.57 79.77 69.34 79.77 69.34 79.31 64.21 79.31 64.21 82.54 53.26 82.54"/><polygon class="cls-1" points="47.49 82.54 47.49 104.21 47.95 105.13 48.88 105.13 48.88 111.58 50.26 112.51 50.26 116.2 51.18 116.2 51.18 112.51 52.56 111.58 52.56 105.13 53.49 105.13 53.49 82.54 47.49 82.54"/><path class="cls-1" d="M10.14,148.93,26.28,135.1Z"/><polygon class="cls-1" points="25.74 135.56 9.68 149.4 90.84 148.93 83 135.1 25.74 135.56"/><polygon class="cls-1" points="77 129.57 75.62 129.57 75.62 137.41 80.23 142.94 80.23 135.1 77 129.57"/><polygon class="cls-1" points="80.23 135.56 93.14 135.56 87.61 129.57 77 129.57 80.23 135.56"/><polygon class="cls-1" points="80.23 142.94 80.69 142.94 81.15 142.02 81.61 141.56 88.99 141.56 89.45 142.02 89.91 142.48 93.14 142.48 93.05 135.56 80.23 135.56 80.23 142.94"/><polygon class="cls-1" points="9.68 149.4 9.68 160 90.84 159.54 90.84 148.93 9.68 149.4"/></g></g></g></g></g></svg>