<svg xmlns="http://www.w3.org/2000/svg" viewBox="0 0 1281.67 944.58"><defs><style>.cls-1{opacity:0.11;}.cls-2{fill:#212121;}.cls-3{fill:#767676;}</style></defs><title>Asset 10</title><g id="Layer_2" data-name="Layer 2"><g id="MainPage"><g id="Content"><g id="Serviços"><g id="Back"><g class="cls-1"><path class="cls-2" d="M1269.73,615.05A1612.94,1612.94,0,0,1,953.45,777.19a1311.58,1311.58,0,0,1-241.33,67.14,874.14,874.14,0,0,1-200.87,12.95c-57.53-3.35-113.69-13.67-166.74-37.48a255.94,255.94,0,0,1-100.67-76.39,219.85,219.85,0,0,1-45.42-120.54c-4.23-55.74,8.42-108.32,29-159.4A696.85,696.85,0,0,1,330,292.14,1204.19,1204.19,0,0,1,546.1,82.5c2.56,1.55,1.19,3.76.89,6l-.41.41A1.55,1.55,0,0,0,545,90.36a2.08,2.08,0,0,0,0,.25l-.41.42a1.68,1.68,0,0,0-1.74,1.61,1.09,1.09,0,0,0,0,.18v.36a1.67,1.67,0,0,0-1.74,1.6,1,1,0,0,0,0,.25h0a1.8,1.8,0,0,0-1.8,1.79.49.49,0,0,0,0,.12h0a1.85,1.85,0,0,0-1.8,1.9.57.57,0,0,0,0,.13A1134.82,1134.82,0,0,0,439.22,221.6C403.41,274.06,372.62,329,353,390.07A334.38,334.38,0,0,0,335.08,506.2C338,577.81,368,635.46,426,677.89a334.11,334.11,0,0,0,119.83,52.87,678.87,678.87,0,0,0,198.19,15.52c144.23-7.82,282.32-43.39,417.73-92.14,35.81-12.89,70.78-27.45,105.81-41.78C1267.83,613,1269.56,613,1269.73,615.05Z"/><path class="cls-3" d="M851.82,478.51c-.13,113.48-92.23,205.36-205.7,205.23S440.76,591.51,440.89,478C441,364.79,532.75,273,646,272.81c113.31-.37,205.46,91.19,205.82,204.5Z"/><path class="cls-2" d="M536.25,119.32c6-6.63,11.4-12.59,17-18.38,8.95-9.49,18.2-18.62,26.85-28.35A11,11,0,0,1,592.88,69c47.27,12.29,94,26.56,139.83,43.45A1059.93,1059.93,0,0,1,956.85,224a599.64,599.64,0,0,1,131.29,115.35c29.84,36.53,53.71,76.45,66.06,122.58,17.61,66.12,7.16,128.13-27.87,186.49a17.88,17.88,0,0,1-10.32,8.17,1676.81,1676.81,0,0,1-203.26,55.21,47.79,47.79,0,0,1-6,.53c.54-4.59,4.12-6.62,6.39-9.31a268.18,268.18,0,0,0,56.39-98c17.19-57.17,11.1-112.66-13.48-166.49-21.55-47.09-53.41-86.65-90.47-122.28-60.46-58-130.34-102.4-204.52-140.6C623.32,156.14,584.47,138.77,545,122.9Z"/><path class="cls-2" d="M1069.16,297.33c-12.29-11.28-23-21.48-34.07-31.15a854.52,854.52,0,0,0-191-121.62,1340.17,1340.17,0,0,0-233.39-85c-2.75-.71-5.43-1.43-8.12-2.27a4.67,4.67,0,0,1-1.43-1.07,12,12,0,0,1,6-3.88,515.25,515.25,0,0,1,154.74-49C810.41-3.32,858.15-.75,904,18c56.39,23,95.48,64.21,123.17,117.68A399.9,399.9,0,0,1,1064.93,257,246.13,246.13,0,0,1,1069.16,297.33Z"/><path class="cls-2" d="M10.86,672.64A1957.57,1957.57,0,0,1,248.67,339.52,1459.45,1459.45,0,0,1,381.39,207.16c1.49,0,2.09-.48,2.09-1.85a10.55,10.55,0,0,1,1.25-1.07l1.85,2.86a1058.48,1058.48,0,0,0-91.72,110.11,685.28,685.28,0,0,0-77.58,137.25,29.83,29.83,0,0,1-6.92,10.38A2130.92,2130.92,0,0,0,18,671.56a18.48,18.48,0,0,1-3.1,2.69C13.37,673.77,11,677.23,10.86,672.64Z"/><path class="cls-2" d="M400.55,311.71A39.53,39.53,0,0,1,406,299.18,946.46,946.46,0,0,1,521.63,135.91c2.93-3.4,5.13-5.49,10.5-3.4a1397,1397,0,0,1,132.25,60.27c.53,0,.89,1,2.21,2.63C568.84,213.13,483.32,258,400.55,311.71Z"/><path class="cls-2" d="M171.09,17.69A1673.35,1673.35,0,0,1,554.21,59.46c-8.47,6.63-15.63,11.94-22.67,17.91-8.83,7-17.91,13.54-26.26,21.18a15.23,15.23,0,0,1-17.9,2.87c-48.82-17.91-98.53-32.83-148.84-46.07C282.93,40.66,227.07,28.49,171.09,17.69Z"/><path class="cls-2" d="M971.71,787.93a798,798,0,0,1-158.44,67.85,1209.67,1209.67,0,0,1-204.51,44.7q-49.71,6.63-99.6,10c-6.39-1.43-13,1.31-19.28-1.32a1233.43,1233.43,0,0,0,136.24-37A166.24,166.24,0,0,1,661,864.74a1174.68,1174.68,0,0,0,191-39.81c39.51-11.4,78.24-25.18,116.79-39.32C969.68,786,971.41,786,971.71,787.93Z"/><path class="cls-2" d="M912.33,940.58c11.94-39.26,23.87-78.65,33.54-118.63a11,11,0,0,1,6-7.76c7.82-3.94,15.57-8.12,23.45-12.29-.77,11.93-36.64,96-60.75,142.68C912.69,944.11,912.93,942.08,912.33,940.58Z"/><path class="cls-3" d="M547.05,88.29c0-2,1.67-4.24-.89-6a93.54,93.54,0,0,1,20.11-14.86A131.75,131.75,0,0,1,547.05,88.29Z"/><path class="cls-3" d="M10.86,672.64c0,4.35,2.51.89,3.82,1.07A60.32,60.32,0,0,1,0,692.45,80.93,80.93,0,0,1,10.86,672.64Z"/><path class="cls-3" d="M386.58,207.16l-1.85-2.86a38.3,38.3,0,0,1,14.39-11.1A41.76,41.76,0,0,1,386.58,207.16Z"/><path class="cls-3" d="M971.71,787.93c0-1.79-2-1.73-3.22-2.32a32.23,32.23,0,0,1,15.93-5.44A33.3,33.3,0,0,1,971.71,787.93Z"/><path class="cls-3" d="M1269.73,615.05c0-2-1.9-1.91-3.22-2.45a46.33,46.33,0,0,1,11.94-6,2.31,2.31,0,0,1,3.19.78l0,.05A40,40,0,0,1,1269.73,615.05Z"/><path class="cls-3" d="M383.48,205.13c0,1.38-.6,2.15-2.09,1.85C381.63,205.79,382.11,205,383.48,205.13Z"/><path class="cls-3" d="M545,90.43a1.56,1.56,0,0,1,1.37-1.72h.25A1.85,1.85,0,0,1,545,90.43Z"/><path class="cls-3" d="M536.67,99.33a1.84,1.84,0,0,1,1.66-2h.13A2,2,0,0,1,536.67,99.33Z"/><path class="cls-3" d="M538.7,97.06a1.79,1.79,0,0,1,1.67-1.91h.12A1.91,1.91,0,0,1,538.7,97.06Z"/><path class="cls-3" d="M541.09,94.85A1.67,1.67,0,0,1,542.57,93h.25A1.91,1.91,0,0,1,541.09,94.85Z"/><path class="cls-3" d="M542.82,92.64a1.65,1.65,0,0,1,1.54-1.78h.19A1.91,1.91,0,0,1,542.82,92.64Z"/></g></g></g></g></g></g></svg>