<svg xmlns="http://www.w3.org/2000/svg" viewBox="0 0 74.89 48"><defs><style>.cls-1{fill:#19192d;}</style></defs><title>Asset 20</title><g id="Layer_2" data-name="Layer 2"><g id="MainPage"><g id="Content"><g id="Contato_gray"><path class="cls-1" d="M56.44,20.65a54.31,54.31,0,0,1-10.62,5.44,43.63,43.63,0,0,1-8.1,2.25,29.26,29.26,0,0,1-6.74.44,15.69,15.69,0,0,1-5.6-1.26A8.69,8.69,0,0,1,22,25a7.38,7.38,0,0,1-1.52-4.05,11.82,11.82,0,0,1,1-5.35,23.15,23.15,0,0,1,3.44-5.75,40.66,40.66,0,0,1,7.26-7c.08,0,0,.13,0,.2h0a.05.05,0,0,0,0,0h0v0a.05.05,0,0,0-.06,0h0a.06.06,0,0,0-.06.05h0a.06.06,0,0,0-.06.06h0a.07.07,0,0,0-.06.07h0a38.42,38.42,0,0,0-3.3,4.12,22,22,0,0,0-2.89,5.65,11.29,11.29,0,0,0-.61,3.9,7.18,7.18,0,0,0,3.06,5.77,11.24,11.24,0,0,0,4,1.77,22.53,22.53,0,0,0,6.65.52,49,49,0,0,0,14-3.09c1.2-.43,2.37-.92,3.55-1.4C56.38,20.58,56.43,20.58,56.44,20.65Z"/><path class="cls-1" d="M42.41,16.06a6.9,6.9,0,1,1-6.91-6.9,6.89,6.89,0,0,1,6.91,6.9Z"/><path class="cls-1" d="M31.82,4c.2-.23.38-.43.57-.62s.61-.63.9-1a.36.36,0,0,1,.43-.13c1.59.42,3.15.9,4.69,1.46a35.76,35.76,0,0,1,7.53,3.75,20.05,20.05,0,0,1,4.4,3.87,10.86,10.86,0,0,1,2.22,4.12,7.84,7.84,0,0,1-.93,6.26.59.59,0,0,1-.35.27,55.39,55.39,0,0,1-6.82,1.85l-.2,0c0-.15.13-.22.21-.31a9,9,0,0,0,1.89-3.29,7.68,7.68,0,0,0-.45-5.59,13.48,13.48,0,0,0-3-4.11A29.18,29.18,0,0,0,36,5.89c-1.27-.65-2.57-1.23-3.9-1.76Z"/><path class="cls-1" d="M49.71,10c-.42-.38-.77-.72-1.15-1a28.49,28.49,0,0,0-6.41-4.09A45.24,45.24,0,0,0,34.32,2l-.27-.08a.09.09,0,0,1,0,0,.39.39,0,0,1,.2-.13A17.19,17.19,0,0,1,39.39.11,9.13,9.13,0,0,1,44.16.6a8.06,8.06,0,0,1,4.14,4,13.63,13.63,0,0,1,1.27,4.08A8.7,8.7,0,0,1,49.71,10Z"/><path class="cls-1" d="M47.53,38.52l1.93.4c.14,0,.17.09.17.22a15.35,15.35,0,0,1-.06,1.66,1.39,1.39,0,0,1-1.28,1.34,2.76,2.76,0,0,1-.57.06H41.38a3.6,3.6,0,0,1-.8-.12,1.25,1.25,0,0,1-.95-.95,3.74,3.74,0,0,1-.13-.88V35a3.75,3.75,0,0,1,.14-.94,1.21,1.21,0,0,1,.91-.9,3.28,3.28,0,0,1,1-.15h6.06a3.28,3.28,0,0,1,1,.15,1.23,1.23,0,0,1,.92.93,4,4,0,0,1,.13.77c0,.32,0,.66,0,1,0,.14,0,.21-.19.23l-1.95.31v-1.3c0-.52.07-.45-.44-.45H41.76c-.08,0-.12,0-.12.14v5.6c0,.1,0,.14.15.14h5.35c.37,0,.35,0,.35-.34V38.88A.87.87,0,0,1,47.53,38.52Z"/><path class="cls-1" d="M4.79,42.21H.18C0,42.22,0,42.15,0,42V33.36c0-.44,0-.39.4-.39H6.29c.12,0,.17,0,.17.17v1.24c0,.16-.09.16-.2.16H2.4c-.25,0-.25,0-.26.25V36.4c0,.17.06.22.23.22h7c.13,0,.19.06.18.19V38c0,.13-.05.17-.17.17h-7c-.18,0-.24.07-.23.25V40.2c0,.3,0,.3.31.3h7c.13,0,.17,0,.17.17v1.38c0,.13-.06.17-.17.16Z"/><path class="cls-1" d="M24.44,42.21a.55.55,0,0,1,.14-.32l4.86-8.6A.52.52,0,0,1,30,33a13.45,13.45,0,0,0,1.42,0,.44.44,0,0,1,.44.27q1.89,3.32,3.8,6.63L36.89,42a.21.21,0,0,1,0,.2H34.87a.36.36,0,0,1-.39-.22c-.27-.53-.57-1-.84-1.56a.41.41,0,0,0-.42-.24H27.87a.41.41,0,0,0-.4.25c-.26.51-.54,1-.8,1.53a.38.38,0,0,1-.38.25Zm8.15-3.69-2-3.77-2.07,3.77Z"/><path class="cls-1" d="M74.88,42.21H72.7c-.15,0-.2-.09-.26-.2-.28-.52-.57-1-.84-1.55a.44.44,0,0,0-.47-.27q-2.62,0-5.25,0a.46.46,0,0,0-.49.29c-.26.51-.54,1-.8,1.53-.07.12-.13.2-.29.2H62.43c-.07-.11,0-.17,0-.23q2.48-4.38,5-8.75a.42.42,0,0,1,.45-.25c.48,0,1,0,1.45,0a.47.47,0,0,1,.49.29q2,3.4,3.91,6.81L74.83,42A.26.26,0,0,1,74.88,42.21Zm-4.33-3.68c-.69-1.28-1.33-2.51-2-3.78l-2.06,3.78Z"/><path class="cls-1" d="M12.18,33h1.55a5.08,5.08,0,0,0,.78,0,.78.78,0,0,1,.72.32c.82.89,1.65,1.76,2.48,2.64a.45.45,0,0,0,.2.16l.85-.94c.6-.66,1.18-1.31,1.77-2A.53.53,0,0,1,21,33h2.08s0,0,0,.05v0l-3.9,4.13,4.89,4.88c-.05.18-.14.14-.21.14h-2.4A.53.53,0,0,1,21,42l-3-3.14-.2-.24a1.52,1.52,0,0,0-.4.4C16.61,40,15.76,41,14.91,42a.6.6,0,0,1-.51.24H12.27c0-.13.07-.17.13-.23l3.91-4.25.15-.15a.14.14,0,0,0,0-.18l0,0-.18-.18c-1.28-1.3-2.58-2.6-3.87-3.9l-.27-.23Z"/><path class="cls-1" d="M57.34,33h5.18a.14.14,0,0,1,.15.15v1.34c0,.11-.05.15-.15.15H58.8c-.44,0-.4-.07-.4.39v7c0,.13,0,.2-.18.2H56.41c-.12,0-.17,0-.16-.17V34.88c0-.26,0-.26-.28-.26H52.29c-.3,0-.3,0-.3-.29V33.27c0-.29,0-.29.29-.29h5.06Z"/><path class="cls-1" d="M14.18,22.58a65.68,65.68,0,0,1,8-11.18A49.29,49.29,0,0,1,26.62,7c.05,0,.07,0,.07-.06l0,0,.06.09a37.75,37.75,0,0,0-3.08,3.7,23,23,0,0,0-2.6,4.61.89.89,0,0,1-.23.34,71.82,71.82,0,0,0-6.46,6.94.41.41,0,0,1-.1.09C14.27,22.62,14.19,22.73,14.18,22.58Z"/><path class="cls-1" d="M27.26,10.46a1.33,1.33,0,0,1,.19-.42,31.24,31.24,0,0,1,3.88-5.48c.1-.11.17-.18.35-.11a48,48,0,0,1,4.44,2s0,0,.07.09A24.43,24.43,0,0,0,27.26,10.46Z"/><path class="cls-1" d="M19.56.59A55.64,55.64,0,0,1,32.42,2c-.28.22-.52.4-.76.6s-.6.45-.88.71a.5.5,0,0,1-.6.09c-1.64-.6-3.31-1.1-5-1.54C23.31,1.37,21.44,1,19.56.59Z"/><path class="cls-1" d="M46.44,26.45a27.16,27.16,0,0,1-5.32,2.28,40.28,40.28,0,0,1-6.87,1.5c-1.11.15-2.22.26-3.34.34-.22-.05-.44,0-.65-.05a41.61,41.61,0,0,0,4.57-1.24A5.31,5.31,0,0,1,36,29a40,40,0,0,0,6.42-1.34c1.32-.38,2.62-.84,3.92-1.32C46.37,26.39,46.43,26.39,46.44,26.45Z"/><path class="cls-1" d="M72.67,45.31v2.21c0,.32,0,.35-.34.35s-.28,0-.28-.3V44.35c0-.28,0-.3.3-.3.64,0,.5-.08.71.45.28.69.55,1.38.84,2.1.09-.09.06-.17.06-.24v-2a.35.35,0,0,1,.32-.37.39.39,0,0,1,.21.06c.12.06.09.18.09.28v3.22c0,.27,0,.28-.28.3-.56,0-.56,0-.76-.5s-.44-1.14-.67-1.71A.69.69,0,0,0,72.67,45.31Z"/><path class="cls-1" d="M45.55,46.28l.74,1.11c.08.12.23.22.16.38s-.27.07-.42.09-.25-.08-.33-.2c-.23-.38-.47-.76-.71-1.13a.46.46,0,0,0-.13-.18.35.35,0,0,0-.3,0c-.1,0-.07.14-.07.22v1c0,.33,0,.33-.31.34s-.32,0-.32-.33V44.32c0-.24,0-.27.26-.27.39,0,.78,0,1.17,0a1,1,0,0,1,1,.81,1.11,1.11,0,0,1-.61,1.33Zm-1.07-1.12v.32c0,.16.06.21.21.2h.49c.35,0,.49-.17.49-.51s-.12-.47-.5-.49H45C44.4,44.68,44.49,44.59,44.48,45.16Z"/><path class="cls-1" d="M67.43,45.94a2.86,2.86,0,0,1,.21-1.22A1.2,1.2,0,0,1,69.16,44a1.08,1.08,0,0,1,.69.66,3.3,3.3,0,0,1,0,2.58,1.08,1.08,0,0,1-1,.71,1.18,1.18,0,0,1-1.12-.62A2.61,2.61,0,0,1,67.43,45.94Zm.64,0a2.18,2.18,0,0,0,.2,1.12.54.54,0,0,0,.71.27.63.63,0,0,0,.28-.28,1.2,1.2,0,0,0,.13-.36,3.38,3.38,0,0,0,0-1.58c-.11-.39-.3-.56-.59-.55s-.48.2-.6.56l0,.14a2.57,2.57,0,0,0-.06.68Z"/><path class="cls-1" d="M48.41,45.92v-1.6c0-.26,0-.28.29-.28h1.84c.25,0,.28,0,.28.29s0,.31-.3.32H49.25c-.15,0-.22,0-.2.2s0,.35,0,.53.05.16.17.16h1.06c.1,0,.23,0,.27.11a.63.63,0,0,1,0,.45c-.05.09-.15.06-.23.07H49.24c-.13,0-.2,0-.2.17a8,8,0,0,0,0,.85,2.38,2.38,0,0,0,.8,0c.27,0,.49,0,.74,0s.28.06.28.31,0,.31-.27.32h-2c-.23,0-.25,0-.26-.28C48.41,47,48.41,46.48,48.41,45.92Z"/><path class="cls-1" d="M62.55,46.85a1,1,0,0,1-.6,1,1.28,1.28,0,0,1-1.37-.11,1.71,1.71,0,0,1-.46-.58.2.2,0,0,1,0-.28.15.15,0,0,1,.07,0l.15-.08c.16-.09.25,0,.3.12a1,1,0,0,0,.17.27.75.75,0,0,0,.78.19.45.45,0,0,0,.29-.37.49.49,0,0,0-.2-.53,4.53,4.53,0,0,0-.54-.27c-.15-.08-.3-.13-.45-.2a1.1,1.1,0,0,1-.49-1.31,1.14,1.14,0,0,1,1.85-.38,1.39,1.39,0,0,1,.23.31c.18.29.16.34-.16.49s-.22.1-.34-.12-.34-.42-.64-.38a.41.41,0,0,0-.37.28.43.43,0,0,0,.14.48,1.41,1.41,0,0,0,.34.19l.65.28A1,1,0,0,1,62.55,46.85Z"/><path class="cls-1" d="M52.65,45.93a2.78,2.78,0,0,1,.25-1.2A1.24,1.24,0,0,1,54.15,44a1.13,1.13,0,0,1,1,1.05c0,.18-.1.26-.36.31s-.21-.05-.22-.19l0-.11c-.09-.31-.24-.46-.5-.47a.57.57,0,0,0-.58.38,2.64,2.64,0,0,0,0,2,.53.53,0,0,0,.6.4c.27,0,.44-.15.54-.47a.14.14,0,0,0,0-.07c.06-.36.14-.34.49-.21.12,0,.14.14.13.26a1.27,1.27,0,0,1-1,1.08,1.21,1.21,0,0,1-1.33-.66A2.72,2.72,0,0,1,52.65,45.93Z"/><path class="cls-1" d="M39.63,46V44.34c0-.27,0-.29.28-.29s.71,0,1.06,0A1.15,1.15,0,0,1,42,45.65a1,1,0,0,1-.94.73h-.32c-.51,0-.51,0-.51.53v.64c0,.11,0,.26-.13.29a.59.59,0,0,1-.45,0c-.09-.05-.06-.16-.06-.26C39.62,47,39.63,46.5,39.63,46Zm.64-.74c0,.63,0,.63.64.56l.14,0c.32-.06.42-.18.43-.5s-.12-.51-.4-.57a2.72,2.72,0,0,0-.64,0c-.14,0-.18.07-.17.2v.39Z"/><path class="cls-1" d="M57.61,47.86h-.46a.17.17,0,0,1-.2-.15v0c0-.12,0-.3.15-.3s.21-.13.2-.28V44.83c0-.16,0-.3-.22-.3s-.14-.15-.14-.27.05-.21.18-.21h1c.13,0,.18.1.18.21s0,.27-.15.27-.24.12-.24.29v2.27c0,.15,0,.27.22.28s.17.15.17.29a.2.2,0,0,1-.2.2h-.52Z"/><path class="cls-1" d="M65.07,44.05h.49c.17,0,.18.09.18.21s0,.27-.14.27-.23.13-.23.29v2.3c0,.14,0,.25.2.25s.17.16.17.28-.06.2-.19.2h-1a.17.17,0,0,1-.2-.14v-.06c0-.12,0-.29.16-.29s.21-.13.21-.28V44.79c0-.16,0-.27-.23-.27s-.14-.15-.14-.26,0-.22.17-.22Z"/><path class="cls-1" d="M44.44,31.57c.4-1.31.8-2.64,1.13-4a.38.38,0,0,1,.2-.26l.79-.41a33.53,33.53,0,0,1-2,4.79C44.45,31.69,44.46,31.62,44.44,31.57Z"/><path class="cls-1" d="M32.18,3c0-.06.06-.14,0-.2a3.41,3.41,0,0,1,.68-.5A4.32,4.32,0,0,1,32.18,3Z"/><path class="cls-1" d="M44.44,31.57c0,.05,0,.12.08.14a3.1,3.1,0,0,1-.36.73A3.4,3.4,0,0,1,44.44,31.57Z"/><path class="cls-1" d="M14.18,22.58c0,.15.09,0,.13,0a2,2,0,0,1-.49.62A2.82,2.82,0,0,1,14.18,22.58Z"/><path class="cls-1" d="M26.79,7l-.06-.09a1.32,1.32,0,0,1,.48-.37A1.32,1.32,0,0,1,26.79,7Z"/><path class="cls-1" d="M30.26,30.52c.21.09.43,0,.65.05a4.89,4.89,0,0,1-1.08.05Z"/><path class="cls-1" d="M46.44,26.45c0-.06-.07-.06-.11-.08a1.12,1.12,0,0,1,.53-.18A1,1,0,0,1,46.44,26.45Z"/><path class="cls-1" d="M56.44,20.65c0-.07-.06-.07-.11-.09a2.14,2.14,0,0,1,.4-.2.08.08,0,0,1,.11,0h0A1.31,1.31,0,0,1,56.44,20.65Z"/><path class="cls-1" d="M26.69,6.89s0,.07-.07.06S26.64,6.88,26.69,6.89Z"/><path class="cls-1" d="M32.11,3a.06.06,0,0,1,0-.06h0A.06.06,0,0,1,32.11,3Z"/><path class="cls-1" d="M31.83,3.33a.06.06,0,0,1,.06-.06h0A.06.06,0,0,1,31.83,3.33Z"/><path class="cls-1" d="M31.9,3.26A.07.07,0,0,1,32,3.19h0A.07.07,0,0,1,31.9,3.26Z"/><path class="cls-1" d="M32,3.18A.06.06,0,0,1,32,3.12h0A.06.06,0,0,1,32,3.18Z"/><path class="cls-1" d="M32,3.11a.06.06,0,0,1,.05-.06h0S32.07,3.11,32,3.11Z"/></g></g></g></g></svg>