<svg xmlns="http://www.w3.org/2000/svg" viewBox="0 0 199.71 128"><defs><style>.cls-1{fill:#300299;}.cls-2{fill:#5078d5;}</style></defs><title>Asset 21</title><g id="Layer_2" data-name="Layer 2"><g id="Assets"><path class="cls-1" d="M150.51,55.06a144.74,144.74,0,0,1-28.32,14.51,117.11,117.11,0,0,1-21.6,6,78,78,0,0,1-18,1.16,42,42,0,0,1-14.93-3.35,23,23,0,0,1-9-6.84,19.64,19.64,0,0,1-4.06-10.79A31.46,31.46,0,0,1,57.2,41.49a62.5,62.5,0,0,1,9.18-15.34A107.75,107.75,0,0,1,85.73,7.39c.23.13.11.33.08.53l0,0a.13.13,0,0,0-.14.13v0l0,0a.15.15,0,0,0-.15.14v.05a.15.15,0,0,0-.16.14v0h0a.16.16,0,0,0-.16.16h0a.17.17,0,0,0-.16.17h0a102.2,102.2,0,0,0-8.8,11,58.74,58.74,0,0,0-7.72,15.08,30.07,30.07,0,0,0-1.6,10.39A19.09,19.09,0,0,0,75,60.68a30.07,30.07,0,0,0,10.73,4.74,60.79,60.79,0,0,0,17.74,1.39c12.91-.7,25.27-3.89,37.39-8.25,3.21-1.16,6.34-2.46,9.48-3.74C150.34,54.87,150.49,54.87,150.51,55.06Z"/><path class="cls-2" d="M113.1,42.84a18.37,18.37,0,1,1,0-.11Z"/><path class="cls-1" d="M84.85,10.68c.53-.59,1-1.13,1.52-1.64.8-.85,1.62-1.67,2.4-2.54a1,1,0,0,1,1.15-.33c4.23,1.1,8.41,2.38,12.51,3.89a95.17,95.17,0,0,1,20.07,10,53.59,53.59,0,0,1,11.75,10.33,29.41,29.41,0,0,1,5.92,11A20.83,20.83,0,0,1,137.67,58a1.58,1.58,0,0,1-.92.74,152.87,152.87,0,0,1-18.2,4.94l-.53.05c0-.42.37-.6.57-.84a23.94,23.94,0,0,0,5-8.77,20.58,20.58,0,0,0-1.21-14.91,36.19,36.19,0,0,0-8.1-10.95A76.73,76.73,0,0,0,96,15.72C92.64,14,89.16,12.42,85.63,11Z"/><path class="cls-1" d="M132.55,26.62c-1.1-1-2.05-1.93-3.05-2.79a76.84,76.84,0,0,0-17.09-10.89A120.57,120.57,0,0,0,91.52,5.33c-.25-.06-.49-.12-.73-.2a.41.41,0,0,1-.13-.1,1.16,1.16,0,0,1,.53-.34A46,46,0,0,1,105.05.3a24.21,24.21,0,0,1,12.72,1.31,21.42,21.42,0,0,1,11,10.53A36.05,36.05,0,0,1,132.17,23,20.76,20.76,0,0,1,132.55,26.62Z"/><path class="cls-1" d="M126.74,102.71c1.73.36,3.44.74,5.16,1.07.37.07.44.26.43.59a32.65,32.65,0,0,1-.15,4.42,3.68,3.68,0,0,1-3.42,3.57,7.49,7.49,0,0,1-1.5.17H110.35a8.53,8.53,0,0,1-2.14-.33,3.31,3.31,0,0,1-2.53-2.53,9.17,9.17,0,0,1-.33-2.33V93.26a9.36,9.36,0,0,1,.36-2.52,3.31,3.31,0,0,1,2.43-2.41,10,10,0,0,1,2.61-.38h16.16a10,10,0,0,1,2.61.38A3.37,3.37,0,0,1,132,90.82a9,9,0,0,1,.33,2.05c.05.88,0,1.76,0,2.64,0,.38-.09.57-.49.63-1.7.26-3.39.54-5.21.83V93.51c0-1.4.19-1.21-1.19-1.21H111.37c-.23,0-.33.13-.33.36v14.93c0,.27.12.39.4.39h14.27c1,0,.93.07.93-.9v-3.4A2.44,2.44,0,0,1,126.74,102.71Z"/><path class="cls-1" d="M12.77,112.57H.47c-.37,0-.49-.17-.47-.54V89c0-1.18-.13-1,1.07-1h15.7c.32,0,.46.1.46.43v3.31c0,.44-.25.43-.54.43H6.39c-.66,0-.67,0-.67.68v4.28c0,.46.15.61.59.6H25c.36,0,.5.14.49.5v3.21c0,.33-.14.45-.45.44s-.5,0-.76,0h-18c-.5,0-.64.18-.64.66v4.73c0,.79,0,.8.85.8H25.08c.32,0,.43.14.43.45v3.69c0,.33-.15.44-.46.43Z"/><path class="cls-1" d="M65.18,112.57a1.64,1.64,0,0,1,.36-.87q6.48-11.46,13-22.93A1.4,1.4,0,0,1,80,87.93c1.26.07,2.52,0,3.78,0a1.14,1.14,0,0,1,1.17.7Q90,97.48,95.08,106.32L98.37,112a.53.53,0,0,1,.11.54h-3c-.82,0-1.64,0-2.46,0a1,1,0,0,1-1-.61c-.72-1.39-1.53-2.75-2.25-4.14a1.06,1.06,0,0,0-1.1-.65H74.32a1.07,1.07,0,0,0-1.06.67c-.7,1.37-1.46,2.72-2.14,4.09a1,1,0,0,1-1,.65Zm21.74-9.84L81.57,92.66l-5.5,10.07Z"/><path class="cls-1" d="M199.69,112.57h-5.83c-.4,0-.53-.26-.67-.54-.76-1.38-1.55-2.74-2.26-4.14a1.2,1.2,0,0,0-1.26-.72q-7,0-14,0a1.23,1.23,0,0,0-1.31.76c-.68,1.39-1.44,2.73-2.14,4.1a.79.79,0,0,1-.78.53h-5c-.19-.3.05-.46.14-.62q6.6-11.67,13.22-23.34a1.13,1.13,0,0,1,1.19-.66c1.29,0,2.58.06,3.87,0a1.27,1.27,0,0,1,1.31.79q5.21,9.08,10.44,18.16l2.91,5.08C199.63,112.14,199.77,112.29,199.69,112.57Zm-11.57-9.83c-1.81-3.41-3.52-6.69-5.37-10.06l-5.5,10.06Z"/><path class="cls-1" d="M32.48,88h4.13a18,18,0,0,0,2.08,0,2.14,2.14,0,0,1,1.94.86c2.17,2.37,4.39,4.69,6.59,7a1.11,1.11,0,0,0,.54.44L50,93.76c1.61-1.76,3.17-3.5,4.72-5.28A1.43,1.43,0,0,1,56,87.94h5.54l.06.14a.11.11,0,0,1,0,.08q-5.22,5.52-10.41,11l13,13c-.13.47-.36.36-.53.36H57.23A1.35,1.35,0,0,1,56.1,112q-3.94-4.2-7.91-8.38a8,8,0,0,1-.54-.64,4.94,4.94,0,0,0-1.07,1.07q-3.42,3.9-6.82,7.84a1.55,1.55,0,0,1-1.36.66c-1.89,0-3.78,0-5.67,0-.1-.35.18-.47.33-.63q5.2-5.67,10.45-11.31c.12-.14.25-.29.38-.42a.33.33,0,0,0,.06-.47l-.06-.06c-.16-.15-.31-.31-.47-.47Q38.28,94,33.08,88.8c-.22-.22-.48-.41-.72-.61Z"/><path class="cls-1" d="M152.92,88h13.8a.35.35,0,0,1,.4.38v3.59c0,.29-.14.39-.4.39s-.45,0-.67,0h-9.26c-1.16,0-1.07-.18-1.07,1v18.71c0,.35-.1.53-.48.53h-4.81c-.32,0-.45-.14-.43-.46V93c0-.7,0-.71-.74-.71h-9.83c-.78,0-.79,0-.79-.75V88.72c0-.76,0-.77.78-.77h13.5Z"/><path class="cls-1" d="M37.82,60.21A175.72,175.72,0,0,1,59.1,30.39,133,133,0,0,1,71,18.54c.13,0,.18,0,.18-.16l.11-.1.17.26a94.3,94.3,0,0,0-8.21,9.86,61.42,61.42,0,0,0-7,12.28,2.53,2.53,0,0,1-.62.93A190.85,190.85,0,0,0,38.45,60.12a1.31,1.31,0,0,1-.28.24C38,60.31,37.83,60.62,37.82,60.21Z"/><path class="cls-1" d="M72.7,27.9a3.51,3.51,0,0,1,.49-1.12A84.34,84.34,0,0,1,83.54,12.17c.26-.31.46-.5.94-.31a122.54,122.54,0,0,1,11.84,5.4c.05,0,.08.09.2.23C87.76,19.08,80.11,23.1,72.7,27.9Z"/><path class="cls-1" d="M52.16,1.58a149.91,149.91,0,0,1,34.3,3.74c-.76.6-1.4,1.07-2,1.61-.79.62-1.61,1.21-2.35,1.89a1.37,1.37,0,0,1-1.61.26C76.1,7.48,71.65,6.14,67.15,5,62.17,3.64,57.17,2.55,52.16,1.58Z"/><path class="cls-1" d="M123.83,70.53a71.89,71.89,0,0,1-14.18,6.08,108.15,108.15,0,0,1-18.31,4q-4.45.58-8.92.9c-.57-.13-1.16.11-1.72-.12a112,112,0,0,0,12.19-3.31A14.6,14.6,0,0,1,96,77.41a104.93,104.93,0,0,0,17.1-3.56c3.53-1,7-2.26,10.45-3.52C123.65,70.36,123.8,70.36,123.83,70.53Z"/><path class="cls-1" d="M193.78,120.81v5.92c0,.85-.1.93-.9.91s-.75-.08-.76-.78v-8.59c0-.75.08-.82.82-.81,1.69,0,1.32-.2,1.9,1.22.74,1.82,1.46,3.66,2.22,5.57.24-.22.17-.44.17-.63v-5.28a.91.91,0,0,1,.85-1,.9.9,0,0,1,.55.15c.32.17.26.47.26.75v8.59c0,.7-.07.75-.76.78-1.49.07-1.49.07-2-1.31q-.89-2.3-1.78-4.57A2,2,0,0,0,193.78,120.81Z"/><path class="cls-1" d="M121.47,123.4c.67,1,1.33,2,2,3,.2.3.6.58.41,1s-.73.21-1.11.27a1,1,0,0,1-.88-.54c-.62-1-1.26-2-1.9-3a1.68,1.68,0,0,0-.33-.46,1,1,0,0,0-.82-.06c-.26.09-.18.37-.18.58v2.64c0,.88-.06.89-.83.9s-.85,0-.85-.87v-8.61c0-.65.08-.73.7-.73,1,0,2.08,0,3.11,0a2.69,2.69,0,0,1,2.72,2.17,3,3,0,0,1-1.63,3.55A3,3,0,0,0,121.47,123.4Zm-2.84-3v.85c0,.42.14.57.53.54s.88,0,1.32,0c.93-.06,1.31-.47,1.31-1.37s-.33-1.25-1.34-1.3H120C118.4,119.14,118.65,118.9,118.63,120.43Z"/><path class="cls-1" d="M179.8,122.51a7.87,7.87,0,0,1,.58-3.25,3.16,3.16,0,0,1,4-1.82,2.93,2.93,0,0,1,1.86,1.76,9,9,0,0,1,0,6.89,2.91,2.91,0,0,1-2.71,1.88,3.13,3.13,0,0,1-3-1.65A7,7,0,0,1,179.8,122.51Zm1.71.06a5.85,5.85,0,0,0,.53,3,1.44,1.44,0,0,0,1.91.72,1.41,1.41,0,0,0,.73-.75,3.3,3.3,0,0,0,.37-1,9,9,0,0,0-.12-4.2c-.29-1-.8-1.5-1.57-1.48s-1.29.53-1.6,1.5c0,.12,0,.25-.08.37a7.52,7.52,0,0,0-.17,1.83Z"/><path class="cls-1" d="M129.09,122.46v-4.27c0-.7,0-.75.77-.75h4.9c.69,0,.75.09.76.77s-.07.84-.79.85h-3.4c-.39,0-.58.11-.53.54s0,.94,0,1.41.13.44.44.43h2.84c.28,0,.63,0,.71.3a1.71,1.71,0,0,1,0,1.2c-.12.23-.39.17-.61.17H131.3c-.34,0-.53.09-.53.48,0,.74-.05,1.5,0,2.25A6.68,6.68,0,0,0,133,126c.71,0,1.32,0,2,0s.73.16.74.83-.1.83-.71.83h-5.2c-.62,0-.69-.08-.69-.73C129.09,125.42,129.09,123.94,129.09,122.46Z"/><path class="cls-1" d="M166.8,124.93a2.77,2.77,0,0,1-1.6,2.67,3.4,3.4,0,0,1-3.67-.3,4.32,4.32,0,0,1-1.2-1.54.54.54,0,0,1,.1-.75.53.53,0,0,1,.17-.08l.43-.22c.4-.23.65-.08.79.33a2.08,2.08,0,0,0,.45.72,2,2,0,0,0,2.07.5,1.16,1.16,0,0,0,.77-1,1.32,1.32,0,0,0-.54-1.41c-.45-.27-.94-.49-1.42-.72s-.81-.34-1.2-.54a2.9,2.9,0,0,1-1.31-3.49,3.05,3.05,0,0,1,4.93-1,4.51,4.51,0,0,1,.63.81c.48.78.42.93-.44,1.33-.57.27-.59.26-.91-.34-.46-.86-.91-1.12-1.71-1a1.07,1.07,0,0,0-1,.77,1.14,1.14,0,0,0,.38,1.26,3,3,0,0,0,.9.5c.58.25,1.17.48,1.73.77A2.75,2.75,0,0,1,166.8,124.93Z"/><path class="cls-1" d="M140.39,122.49a7.51,7.51,0,0,1,.68-3.2,3.33,3.33,0,0,1,3.33-2,3,3,0,0,1,2.72,2.81c0,.47-.27.69-1,.82-.43.08-.56-.14-.6-.51a1.31,1.31,0,0,0-.06-.27c-.24-.83-.65-1.24-1.33-1.27a1.51,1.51,0,0,0-1.55,1,7.14,7.14,0,0,0-.13,5.43,1.48,1.48,0,0,0,1.61,1.06c.72,0,1.18-.41,1.46-1.25,0-.06,0-.12,0-.18.15-1,.37-.91,1.32-.57.32.12.37.37.32.69a3.32,3.32,0,0,1-2.62,2.87,3.2,3.2,0,0,1-3.54-1.75A7.39,7.39,0,0,1,140.39,122.49Z"/><path class="cls-1" d="M105.67,122.57v-4.34c0-.7.07-.77.75-.77,1,0,1.89,0,2.83,0a3.07,3.07,0,0,1,2.85,4.27,2.65,2.65,0,0,1-2.51,2h-.85c-1.36,0-1.36,0-1.36,1.41v1.7c0,.31.06.7-.34.79a1.58,1.58,0,0,1-1.19-.08c-.25-.15-.18-.45-.18-.69Zm1.71-2c0,1.71,0,1.71,1.72,1.5a2.25,2.25,0,0,0,.36-.06c.85-.17,1.13-.49,1.14-1.34a1.33,1.33,0,0,0-1.07-1.53,8.59,8.59,0,0,0-1.68-.13c-.39,0-.48.19-.47.54s0,.68,0,1Z"/><path class="cls-1" d="M153.63,127.64H152.4a.48.48,0,0,1-.53-.42.28.28,0,0,1,0-.09c0-.34-.09-.8.41-.8s.56-.36.53-.75v-6c0-.42.06-.8-.59-.79-.43,0-.37-.41-.37-.72s.13-.57.48-.57h2.74c.36,0,.47.26.49.58s0,.71-.4.72c-.59,0-.64.3-.64.77v6c0,.4,0,.74.57.75s.48.41.46.77a.54.54,0,0,1-.53.54h-.08Z"/><path class="cls-1" d="M173.51,117.46h1.32c.44,0,.48.24.47.57s.07.73-.37.72c-.62,0-.62.33-.61.78v6.12c0,.39,0,.67.53.67s.45.42.45.75-.15.54-.5.54h-2.64a.47.47,0,0,1-.53-.37.49.49,0,0,1,0-.17c0-.32-.11-.78.41-.78s.56-.34.56-.73v-6.13c0-.43,0-.71-.59-.7s-.37-.41-.38-.72.08-.57.44-.58Z"/><path class="cls-1" d="M118.51,84.2c1.07-3.52,2.14-7,3-10.62a1,1,0,0,1,.53-.7c.7-.35,1.39-.72,2.1-1.1-.07,1.07-3.28,8.6-5.44,12.78C118.55,84.51,118.57,84.33,118.51,84.2Z"/><path class="cls-2" d="M85.82,7.9c0-.18.14-.38-.09-.53A8.45,8.45,0,0,1,87.54,6,12.16,12.16,0,0,1,85.82,7.9Z"/><path class="cls-2" d="M118.51,84.2c.06.13,0,.31.22.36a9,9,0,0,1-1,2A9.39,9.39,0,0,1,118.51,84.2Z"/><path class="cls-2" d="M37.82,60.21c0,.39.22.08.34.1A5.38,5.38,0,0,1,36.84,62,7.19,7.19,0,0,1,37.82,60.21Z"/><path class="cls-2" d="M71.45,18.54l-.17-.25a3.6,3.6,0,0,1,1.29-1A3.64,3.64,0,0,1,71.45,18.54Z"/><path class="cls-2" d="M80.7,81.39c.56.23,1.15,0,1.72.12a12.05,12.05,0,0,1-2.88.13Z"/><path class="cls-2" d="M123.83,70.53c0-.16-.18-.15-.29-.2a2.82,2.82,0,0,1,1.43-.49A3,3,0,0,1,123.83,70.53Z"/><path class="cls-2" d="M150.51,55.06c0-.18-.17-.17-.29-.22a4.3,4.3,0,0,1,1.07-.54.21.21,0,0,1,.28.08h0A3.67,3.67,0,0,1,150.51,55.06Z"/><path class="cls-2" d="M71.17,18.36c0,.13,0,.2-.18.17C71,18.42,71.05,18.35,71.17,18.36Z"/><path class="cls-2" d="M85.63,8.1a.14.14,0,0,1,.12-.16h0A.16.16,0,0,1,85.63,8.1Z"/><path class="cls-2" d="M84.89,8.89A.16.16,0,0,1,85,8.71h0A.18.18,0,0,1,84.89,8.89Z"/><path class="cls-2" d="M85.07,8.69a.15.15,0,0,1,.15-.17h0A.17.17,0,0,1,85.07,8.69Z"/><path class="cls-2" d="M85.28,8.49a.14.14,0,0,1,.13-.16h0A.18.18,0,0,1,85.28,8.49Z"/><path class="cls-2" d="M85.44,8.29a.15.15,0,0,1,.13-.16h0A.16.16,0,0,1,85.44,8.29Z"/></g></g></svg>