<svg xmlns="http://www.w3.org/2000/svg" viewBox="0 0 790.66 582.71"><defs><style>.cls-1{fill:#29294c;}</style></defs><title>Asset 14</title><g id="Layer_2" data-name="Layer 2"><g id="MainPage"><g id="Content"><g id="Sobre"><g id="back"><path class="cls-1" d="M783.3,379.42a994.54,994.54,0,0,1-195.12,100,809.87,809.87,0,0,1-148.87,41.42,538.36,538.36,0,0,1-123.92,8c-35.49-2.06-70.13-8.43-102.86-23.11a157.93,157.93,0,0,1-62.11-47.13,135.59,135.59,0,0,1-28-74.36c-2.62-34.39,5.19-66.82,17.85-98.33a430.14,430.14,0,0,1,63.29-105.7A742.87,742.87,0,0,1,336.89,50.89c1.58,1,.74,2.32.55,3.68l-.26.26a1,1,0,0,0-1,.92.76.76,0,0,0,0,.15l-.26.26a1,1,0,0,0-1.07,1v.33a1,1,0,0,0-1.07,1,.76.76,0,0,0,0,.15h0a1.11,1.11,0,0,0-1.11,1.11v.07h0A1.15,1.15,0,0,0,331.58,61a.19.19,0,0,0,0,.08A700,700,0,0,0,271,136.71c-22.08,32.36-41.08,66.26-53.19,103.92a206.05,206.05,0,0,0-11,71.65C208.48,356.45,227,392,262.82,418.19a206.21,206.21,0,0,0,73.92,32.62A418.73,418.73,0,0,0,459,460.38c89-4.82,174.17-26.76,257.7-56.84,22.09-8,43.67-16.94,65.28-25.77C782.12,378.14,783.19,378.14,783.3,379.42Z"/><path class="cls-1" d="M525.49,295.19a126.54,126.54,0,1,1,0-.73Z"/><path class="cls-1" d="M330.81,73.61c3.69-4.09,7-7.77,10.46-11.34,5.52-5.85,11.23-11.49,16.57-17.49a6.8,6.8,0,0,1,7.91-2.24c29.16,7.58,58,16.38,86.26,26.8a653.66,653.66,0,0,1,138.27,68.84,369.7,369.7,0,0,1,81,71.16C689.68,231.87,704.41,256.5,712,285c10.86,40.79,4.42,79-17.19,115a11.09,11.09,0,0,1-6.37,5.05A1033.89,1033.89,0,0,1,563.08,439.1a28.43,28.43,0,0,1-3.68.33c.33-2.83,2.54-4.08,3.93-5.74a165.29,165.29,0,0,0,34.79-60.49c10.61-35.26,6.85-69.5-8.32-102.71C576.51,241.44,556.86,217,534,195.06c-37.29-35.79-80.4-63.18-126.16-86.74-23.3-12-47.27-22.71-71.6-32.5Z"/><path class="cls-1" d="M659.57,183.42c-7.59-6.95-14.18-13.25-21-19.21a527,527,0,0,0-117.81-75,825.61,825.61,0,0,0-144-52.42c-1.69-.45-3.35-.89-5-1.4a3,3,0,0,1-.88-.67,7.4,7.4,0,0,1,3.68-2.39A317.78,317.78,0,0,1,470,2C499.94-2,529.39-.46,557.7,11.1c34.79,14.21,58.9,39.61,76,72.59A246.63,246.63,0,0,1,657,158.54,151.75,151.75,0,0,1,659.57,183.42Z"/><path class="cls-1" d="M6.7,415a1207.84,1207.84,0,0,1,146.71-205.5,900,900,0,0,1,81.87-81.65c.92,0,1.29-.3,1.29-1.14a7,7,0,0,1,.77-.67l1.14,1.77a653.43,653.43,0,0,0-56.58,67.92A422.64,422.64,0,0,0,134,280.36a18.31,18.31,0,0,1-4.27,6.4A1314.44,1314.44,0,0,0,11.08,414.29a12,12,0,0,1-1.91,1.65C8.25,415.65,6.77,417.79,6.7,415Z"/><path class="cls-1" d="M247.1,192.3a24.3,24.3,0,0,1,3.39-7.73,583.61,583.61,0,0,1,71.3-100.73c1.81-2.1,3.17-3.39,6.48-2.1a858.63,858.63,0,0,1,81.59,37.19c.33,0,.55.62,1.36,1.62C350.92,131.48,298.16,159.16,247.1,192.3Z"/><path class="cls-1" d="M105.55,10.91A1032.62,1032.62,0,0,1,341.9,36.68c-5.23,4.09-9.65,7.37-14,11-5.45,4.3-11.05,8.35-16.2,13.07a9.4,9.4,0,0,1-11,1.76c-30.11-11-60.78-20.24-91.81-28.42C174.54,25.09,140.08,17.58,105.55,10.91Z"/><path class="cls-1" d="M599.45,486.08a493,493,0,0,1-97.74,41.85,746.34,746.34,0,0,1-126.17,27.58q-30.66,4.08-61.44,6.18c-3.94-.88-8,.81-11.89-.81a763.07,763.07,0,0,0,84.05-22.82,102.61,102.61,0,0,1,21.5-4.6,724.88,724.88,0,0,0,117.8-24.56c24.37-7,48.27-15.53,72.05-24.26C598.2,484.9,599.27,484.9,599.45,486.08Z"/><path class="cls-1" d="M562.82,580.25c7.36-24.23,14.72-48.52,20.69-73.19a6.79,6.79,0,0,1,3.68-4.79c4.82-2.43,9.61-5,14.47-7.58-.48,7.36-22.61,59.24-37.48,88C563,582.42,563.19,581.17,562.82,580.25Z"/><path class="cls-1" d="M337.48,54.46c0-1.25,1-2.61-.55-3.68a57.09,57.09,0,0,1,12.4-9.16A81,81,0,0,1,337.48,54.46Z"/><path class="cls-1" d="M6.7,415c0,2.69,1.55.55,2.36.66A37.08,37.08,0,0,1,0,427.17,50.13,50.13,0,0,1,6.7,415Z"/><path class="cls-1" d="M238.48,127.8,237.34,126a23.72,23.72,0,0,1,8.87-6.85A25.77,25.77,0,0,1,238.48,127.8Z"/><path class="cls-1" d="M599.45,486.08c0-1.11-1.25-1.07-2-1.44a19.91,19.91,0,0,1,9.83-3.35A20.61,20.61,0,0,1,599.45,486.08Z"/><path class="cls-1" d="M783.3,379.42c0-1.25-1.18-1.17-2-1.5a28.76,28.76,0,0,1,7.37-3.69,1.44,1.44,0,0,1,2,.49v0A24.48,24.48,0,0,1,783.3,379.42Z"/><path class="cls-1" d="M236.57,126.55c0,.84-.37,1.32-1.29,1.14C235.43,127,235.72,126.47,236.57,126.55Z"/><path class="cls-1" d="M336.19,55.79a1,1,0,0,1,.84-1.06h.15A1.14,1.14,0,0,1,336.19,55.79Z"/><path class="cls-1" d="M331.07,61.27a1.14,1.14,0,0,1,1-1.24h.08A1.21,1.21,0,0,1,331.07,61.27Z"/><path class="cls-1" d="M332.32,59.88a1.11,1.11,0,0,1,1-1.18h.08A1.18,1.18,0,0,1,332.32,59.88Z"/><path class="cls-1" d="M333.8,58.51a1,1,0,0,1,.91-1.13h.15A1.16,1.16,0,0,1,333.8,58.51Z"/><path class="cls-1" d="M334.86,57.15a1,1,0,0,1,1-1.1h.11A1.17,1.17,0,0,1,334.86,57.15Z"/></g></g></g></g></g></svg>