<svg xmlns="http://www.w3.org/2000/svg" viewBox="0 0 395 253.16"><defs><style>.cls-1{fill:#fff;}</style></defs><title>Asset 9</title><g id="Layer_2" data-name="Layer 2"><g id="MainPage"><g id="Content"><g id="Banner_blue"><path class="cls-1" d="M297.68,108.9a285.19,285.19,0,0,1-56,28.7A231.93,231.93,0,0,1,199,149.49a154.65,154.65,0,0,1-35.56,2.29c-10.19-.59-20.13-2.42-29.52-6.63A45.35,45.35,0,0,1,116,131.62a38.92,38.92,0,0,1-8-21.34c-.75-9.87,1.49-19.18,5.13-28.22a123.25,123.25,0,0,1,18.16-30.34,213.11,213.11,0,0,1,38.27-37.11c.45.27.21.66.16,1.05l-.08.08a.26.26,0,0,0-.28.26v0l-.08.08a.28.28,0,0,0-.3.28v.1a.29.29,0,0,0-.31.28v0h0a.31.31,0,0,0-.32.31v0h0a.32.32,0,0,0-.31.34v0a199.65,199.65,0,0,0-17.4,21.72c-6.34,9.28-11.8,19-15.27,29.82a59.18,59.18,0,0,0-3.17,20.56c.51,12.68,5.82,22.89,16.1,30.4a59.2,59.2,0,0,0,21.22,9.36,120,120,0,0,0,35.09,2.75c25.53-1.38,50-7.68,74-16.31,6.34-2.29,12.53-4.86,18.73-7.4C297.34,108.53,297.65,108.53,297.68,108.9Z"/><path class="cls-1" d="M223.69,84.72a36.32,36.32,0,1,1,0-.21Z"/><path class="cls-1" d="M167.82,21.13c1.05-1.18,2-2.23,3-3.26,1.58-1.68,3.22-3.3,4.75-5a2,2,0,0,1,2.27-.64c8.37,2.17,16.64,4.7,24.76,7.69a187.94,187.94,0,0,1,39.68,19.76,105.81,105.81,0,0,1,23.25,20.42c5.28,6.47,9.51,13.54,11.69,21.7,3.12,11.71,1.27,22.69-4.93,33a3.15,3.15,0,0,1-1.83,1.45,296.57,296.57,0,0,1-36,9.77,7.46,7.46,0,0,1-1.05.1c.09-.82.73-1.18,1.13-1.65a47.45,47.45,0,0,0,10-17.36c3.05-10.12,2-20-2.38-29.48-3.82-8.34-9.46-15.34-16-21.65-10.71-10.27-23.08-18.13-36.21-24.89-6.69-3.45-13.57-6.52-20.55-9.33Z"/><path class="cls-1" d="M262.17,52.64c-2.18-2-4.07-3.8-6-5.51a151.07,151.07,0,0,0-33.81-21.54,236.85,236.85,0,0,0-41.32-15c-.48-.13-1-.25-1.44-.4a.92.92,0,0,1-.25-.19,2.16,2.16,0,0,1,1.06-.69A91,91,0,0,1,207.76.59c8.59-1.18,17.05-.72,25.17,2.59,10,4.08,16.91,11.37,21.81,20.84a70.8,70.8,0,0,1,6.68,21.48A45.16,45.16,0,0,1,262.17,52.64Z"/><path class="cls-1" d="M250.66,203.14c3.42.72,6.82,1.46,10.22,2.12.73.14.88.51.85,1.16a69.25,69.25,0,0,1-.29,8.76c-.67,4.28-2.48,6.21-6.77,7a15.62,15.62,0,0,1-3,.34H218.25a17.26,17.26,0,0,1-4.23-.65,6.57,6.57,0,0,1-5-5,18,18,0,0,1-.66-4.61V184.45a18.29,18.29,0,0,1,.73-5,6.51,6.51,0,0,1,4.79-4.76A18.78,18.78,0,0,1,219,174h32a18.86,18.86,0,0,1,5.17.76,6.63,6.63,0,0,1,4.87,4.92,17.92,17.92,0,0,1,.65,4.05c.09,1.73,0,3.49.07,5.23,0,.74-.18,1.12-1,1.25-3.36.5-6.72,1.05-10.3,1.62v-6.84c0-2.76.37-2.38-2.35-2.39H220.27c-.46,0-.66.26-.66.71v29.53c0,.55.25.78.79.77h28.23c2,0,1.85.15,1.85-1.78v-6.73A4.75,4.75,0,0,1,250.66,203.14Z"/><path class="cls-1" d="M25.25,222.64H.94c-.75.05-1-.33-.93-1.06V176c0-2.34-.28-2.05,2.11-2.05H33.18c.62,0,.9.19.89.84v6.55c0,.86-.49.85-1,.85H12.64c-1.3,0-1.33,0-1.34,1.35V192c0,.91.3,1.21,1.19,1.2h37c.71,0,1,.27,1,1v6.34c0,.66-.29.9-.9.88s-1,0-1.5,0H12.52c-1-.11-1.27.35-1.26,1.3V212c0,1.57,0,1.58,1.67,1.58H49.59c.65,0,.87.28.87.9v7.29c0,.66-.31.88-.91.86H25.25Z"/><path class="cls-1" d="M128.91,222.64a3.29,3.29,0,0,1,.71-1.72q12.84-22.65,25.66-45.34a2.76,2.76,0,0,1,2.91-1.66c2.49.12,5,.09,7.48,0a2.21,2.21,0,0,1,2.3,1.37q10,17.52,20.08,35l6.52,11.31a1.05,1.05,0,0,1,.21,1.06h-6c-1.62,0-3.25-.07-4.86,0a1.89,1.89,0,0,1-2-1.2c-1.44-2.76-3-5.44-4.45-8.2a2.12,2.12,0,0,0-2.18-1.28H147a2.11,2.11,0,0,0-2.11,1.33c-1.38,2.71-2.88,5.37-4.23,8.09a1.92,1.92,0,0,1-2,1.28C135.4,222.64,132.23,222.64,128.91,222.64Zm43-19.47-10.56-19.9-10.89,19.9Z"/><path class="cls-1" d="M395,222.64H383.43c-.8,0-1.06-.51-1.34-1.06-1.49-2.74-3-5.43-4.47-8.2a2.35,2.35,0,0,0-2.48-1.42q-13.84.07-27.67,0a2.43,2.43,0,0,0-2.6,1.52c-1.34,2.73-2.85,5.39-4.23,8.09a1.56,1.56,0,0,1-1.53,1.06h-9.84c-.38-.61.1-.91.28-1.24q13-23.05,26.14-46.15a2.25,2.25,0,0,1,2.35-1.31c2.56.07,5.12.12,7.66,0a2.5,2.5,0,0,1,2.59,1.56q10.29,18,20.65,35.93l5.75,10C394.83,221.8,395.12,222.09,395,222.64Zm-22.88-19.45c-3.59-6.73-7-13.22-10.62-19.89-3.7,6.78-7.24,13.24-10.88,19.89Z"/><path class="cls-1" d="M64.25,174h8.17a35.05,35.05,0,0,0,4.1,0,4.22,4.22,0,0,1,3.83,1.7c4.3,4.68,8.69,9.28,13.05,13.89a2.16,2.16,0,0,0,1.06.87l4.48-5c3.17-3.47,6.25-6.93,9.33-10.45a2.84,2.84,0,0,1,2.4-1.05h11a2.06,2.06,0,0,1,.12.26.43.43,0,0,1,0,.16q-10.32,10.94-20.59,21.79l25.78,25.74c-.27.94-.72.72-1.06.72H113.19a2.72,2.72,0,0,1-2.24-1.05q-7.8-8.31-15.65-16.57c-.38-.41-.73-.85-1-1.27a8.89,8.89,0,0,0-2.12,2.12q-6.76,7.71-13.49,15.5a3.07,3.07,0,0,1-2.69,1.3c-3.74-.09-7.47,0-11.22,0-.2-.69.35-.92.65-1.25Q75.69,210.2,86.05,199c.25-.27.49-.56.76-.81a.68.68,0,0,0,.12-.94,1.36,1.36,0,0,0-.12-.12c-.32-.29-.62-.61-.93-.93Q75.7,185.9,65.43,175.63c-.44-.43-1-.8-1.42-1.21Z"/><path class="cls-1" d="M302.44,174h27.3a.7.7,0,0,1,.8.76v7.1c0,.57-.29.77-.8.76H310.1c-2.29,0-2.11-.35-2.11,2.06v37c0,.69-.2,1.06-.95,1.06h-9.51c-.64,0-.9-.29-.86-.91V184c0-1.39,0-1.41-1.45-1.41H275.78c-1.56,0-1.57,0-1.57-1.49v-5.6c0-1.51,0-1.52,1.55-1.52h26.68Z"/><path class="cls-1" d="M74.79,119.09a346.83,346.83,0,0,1,42.11-59,258.54,258.54,0,0,1,23.5-23.43c.26,0,.37-.09.37-.33l.22-.19.33.51a185.57,185.57,0,0,0-16.24,19.49,121.52,121.52,0,0,0-13.74,24.3,5.2,5.2,0,0,1-1.22,1.84,375.51,375.51,0,0,0-34.07,36.6,3.16,3.16,0,0,1-.55.48C75.24,119.29,74.82,119.9,74.79,119.09Z"/><path class="cls-1" d="M143.79,55.19a7,7,0,0,1,1-2.22,167.43,167.43,0,0,1,20.47-28.91c.51-.6.91-1,1.86-.6A247.92,247.92,0,0,1,190.5,34.13c.1,0,.16.18.39.47C173.58,37.73,158.44,45.68,143.79,55.19Z"/><path class="cls-1" d="M103.16,3.13A296.61,296.61,0,0,1,171,10.53c-1.5,1.17-2.77,2.11-4,3.17-1.56,1.23-3.17,2.4-4.65,3.75a2.71,2.71,0,0,1-3.17.51c-8.64-3.17-17.44-5.82-26.35-8.16C123,7.2,113.07,5,103.16,3.13Z"/><path class="cls-1" d="M244.91,139.5a141,141,0,0,1-28,12,214.38,214.38,0,0,1-36.21,7.91q-8.79,1.17-17.63,1.78c-1.13-.26-2.3.23-3.41-.24a217,217,0,0,0,24.12-6.55,29.5,29.5,0,0,1,6.17-1.32,208.7,208.7,0,0,0,33.81-7c7-2,13.85-4.46,20.68-7C244.55,139.17,244.86,139.17,244.91,139.5Z"/><path class="cls-1" d="M383.27,239v11.7c0,1.68-.2,1.84-1.79,1.8-1.31,0-1.48-.17-1.49-1.55v-17c0-1.47.14-1.61,1.61-1.6,3.35,0,2.61-.39,3.75,2.41,1.48,3.62,2.9,7.25,4.4,11,.48-.44.34-.87.34-1.25V234.05a1.79,1.79,0,0,1,1.67-1.91,1.82,1.82,0,0,1,1.11.29c.62.34.5.94.5,1.48v17c0,1.38-.14,1.48-1.5,1.54-2.94.14-2.94.14-4-2.6-1.17-3-2.34-6-3.53-9A3.9,3.9,0,0,0,383.27,239Z"/><path class="cls-1" d="M240.24,244.07c1.32,2,2.65,3.93,3.92,5.9.39.6,1.2,1.16.82,1.95s-1.44.41-2.2.52a1.84,1.84,0,0,1-1.73-1.05c-1.24-2-2.51-4-3.78-6a2.73,2.73,0,0,0-.65-.89,1.79,1.79,0,0,0-1.61-.12c-.52.17-.37.73-.37,1.14v5.22c0,1.74-.11,1.76-1.62,1.78s-1.68-.1-1.69-1.72v-17c.06-1.28.17-1.43,1.39-1.44,2.05,0,4.11-.08,6.15,0,2.95.18,4.91,1.81,5.38,4.3.59,3.26-.66,6.07-3.22,7A7.67,7.67,0,0,0,240.24,244.07Zm-5.62-5.87v1.68c-.06.81.29,1.12,1.06,1.06s1.74,0,2.61-.06c1.85-.12,2.6-.93,2.59-2.7s-.66-2.47-2.64-2.59h-.93C234.18,235.63,234.68,235.17,234.62,238.2Z"/><path class="cls-1" d="M355.62,242.31a15.47,15.47,0,0,1,1.13-6.42,6.26,6.26,0,0,1,8-3.61,5.83,5.83,0,0,1,3.68,3.48,17.63,17.63,0,0,1-.07,13.62A5.74,5.74,0,0,1,363,253.1a6.18,6.18,0,0,1-5.88-3.26A13.84,13.84,0,0,1,355.62,242.31Zm3.37.12c0,2.89.34,4.69,1.06,5.87a2.85,2.85,0,0,0,5.22-.05,7,7,0,0,0,.73-1.9,17.86,17.86,0,0,0-.23-8.32c-.58-2.06-1.59-3-3.11-2.93s-2.55,1.06-3.17,3c-.07.24-.11.49-.16.73a14.75,14.75,0,0,0-.34,3.63Z"/><path class="cls-1" d="M255.31,242.2v-8.45c0-1.37.12-1.48,1.52-1.48h9.71c1.35,0,1.48.18,1.5,1.53s-.15,1.66-1.56,1.68h-6.73c-.77,0-1.14.22-1.06,1.06s0,1.87,0,2.8c0,.67.27.87.89.86h5.61c.55,0,1.24-.11,1.4.59a3.31,3.31,0,0,1-.1,2.36c-.24.46-.77.33-1.19.34h-5.6c-.69,0-1.06.18-1.06.94.08,1.48-.11,3,.1,4.46,1.39.51,2.81.15,4.23.22s2.61,0,3.92,0,1.45.31,1.46,1.63-.19,1.65-1.41,1.66H256.66c-1.22,0-1.36-.17-1.37-1.46C255.31,248.06,255.31,245.13,255.31,242.2Z"/><path class="cls-1" d="M329.91,247.1c-.08,2.33-1,4.29-3.17,5.28a6.76,6.76,0,0,1-7.25-.59,8.6,8.6,0,0,1-2.39-3.06,1,1,0,0,1,.55-1.64,9.33,9.33,0,0,0,.83-.43c.8-.45,1.29-.16,1.58.65a4.21,4.21,0,0,0,.87,1.41,3.88,3.88,0,0,0,4.11,1,2.27,2.27,0,0,0,1.52-2A2.59,2.59,0,0,0,325.5,245c-.9-.55-1.87-1-2.82-1.43-.78-.38-1.61-.68-2.37-1.06a5.75,5.75,0,0,1-2.59-6.91c1.29-3.8,6.75-4.94,9.74-2a8.87,8.87,0,0,1,1.25,1.62c1,1.54.85,1.84-.85,2.63-1.15.53-1.19.52-1.82-.68-.9-1.7-1.79-2.21-3.38-2a2.12,2.12,0,0,0-1.93,1.51,2.26,2.26,0,0,0,.74,2.5,6.42,6.42,0,0,0,1.79,1c1.14.49,2.3.95,3.41,1.51A5.46,5.46,0,0,1,329.91,247.1Z"/><path class="cls-1" d="M277.67,242.27a15,15,0,0,1,1.34-6.34,6.59,6.59,0,0,1,6.59-4A6,6,0,0,1,291,237.5c0,.93-.53,1.35-1.89,1.62-.87.16-1.12-.28-1.19-1a4.54,4.54,0,0,0-.12-.53c-.48-1.65-1.29-2.46-2.63-2.52a3,3,0,0,0-3.08,2,14.09,14.09,0,0,0-.24,10.73,2.93,2.93,0,0,0,3.17,2.12c1.43,0,2.34-.83,2.88-2.49a1.9,1.9,0,0,0,.09-.36c.3-1.94.73-1.79,2.61-1.12.63.24.74.74.64,1.37A6.57,6.57,0,0,1,286,253a6.35,6.35,0,0,1-7-3.47A14.51,14.51,0,0,1,277.67,242.27Z"/><path class="cls-1" d="M209,242.43v-8.59c0-1.39.14-1.52,1.48-1.53,1.87,0,3.74-.09,5.6,0,4.61.32,7.14,4.15,5.64,8.46a5.28,5.28,0,0,1-5,3.85h-1.68c-2.7,0-2.7,0-2.7,2.79v3.36c0,.62.13,1.39-.66,1.56a3.11,3.11,0,0,1-2.36-.15c-.5-.31-.35-.89-.35-1.38C209,248,209,245.24,209,242.43Zm3.37-4c0,3.37,0,3.37,3.4,3a5.85,5.85,0,0,0,.73-.12c1.68-.33,2.23-1,2.25-2.66s-.61-2.67-2.11-3a16.14,16.14,0,0,0-3.33-.24c-.77,0-1,.37-.93,1.06s0,1.35,0,2Z"/><path class="cls-1" d="M303.85,252.44h-2.43a.93.93,0,0,1-1.05-.81,1.21,1.21,0,0,1,0-.19c0-.67-.18-1.59.81-1.59,1.18,0,1.11-.69,1.05-1.47V236.43c0-.83.11-1.58-1.17-1.56-.86,0-.74-.82-.74-1.44s.25-1.11,1-1.11h5.41c.72,0,.94.51,1,1.14s.07,1.41-.78,1.42c-1.16,0-1.27.6-1.26,1.53v11.94c0,.8,0,1.46,1.12,1.48.94,0,.94.82.91,1.52a1,1,0,0,1-1,1.07h-.17Z"/><path class="cls-1" d="M343.18,232.31h2.61c.86,0,.95.48.93,1.12s.13,1.45-.74,1.44c-1.23,0-1.22.66-1.21,1.54v12.11c0,.76,0,1.32,1.06,1.31s.89.84.89,1.5-.3,1.06-1,1.06h-5.22a.91.91,0,0,1-1.05-.73.92.92,0,0,1,0-.33c0-.64-.21-1.55.81-1.54s1.11-.68,1.11-1.46V236.21c0-.84-.09-1.4-1.17-1.38-.9,0-.74-.81-.76-1.42s.16-1.13.88-1.15C341.31,232.29,342.25,232.31,343.18,232.31Z"/><path class="cls-1" d="M234.4,166.53c2.11-6.95,4.23-13.92,5.94-21a2,2,0,0,1,1.06-1.38c1.38-.69,2.75-1.43,4.15-2.17-.14,2.11-6.49,17-10.76,25.26C234.46,167.16,234.51,166.8,234.4,166.53Z"/><path class="cls-1" d="M169.73,15.63c0-.36.29-.75-.16-1.06a16.73,16.73,0,0,1,3.56-2.63A23.34,23.34,0,0,1,169.73,15.63Z"/><path class="cls-1" d="M234.4,166.53c.11.27.06.63.43.71a17.56,17.56,0,0,1-1.93,3.88A18.56,18.56,0,0,1,234.4,166.53Z"/><path class="cls-1" d="M74.79,119.09c0,.77.45.16.68.19a10.65,10.65,0,0,1-2.6,3.32A14.79,14.79,0,0,1,74.79,119.09Z"/><path class="cls-1" d="M141.32,36.68l-.33-.51a6.73,6.73,0,0,1,2.55-2A7.62,7.62,0,0,1,141.32,36.68Z"/><path class="cls-1" d="M159.61,161c1.11.47,2.28,0,3.41.24a23.14,23.14,0,0,1-5.7.26Z"/><path class="cls-1" d="M244.91,139.5c0-.31-.36-.3-.57-.41a5.84,5.84,0,0,1,2.82-1A5.79,5.79,0,0,1,244.91,139.5Z"/><path class="cls-1" d="M297.68,108.9c0-.36-.34-.34-.57-.44a8,8,0,0,1,2.11-1,.41.41,0,0,1,.57.14h0A7.1,7.1,0,0,1,297.68,108.9Z"/><path class="cls-1" d="M140.77,36.32c0,.24-.11.38-.37.33C140.44,36.44,140.52,36.3,140.77,36.32Z"/><path class="cls-1" d="M169.36,16a.26.26,0,0,1,.24-.3s0,0,0,0A.33.33,0,0,1,169.36,16Z"/><path class="cls-1" d="M167.89,17.59a.33.33,0,0,1,.29-.36h0A.37.37,0,0,1,167.89,17.59Z"/><path class="cls-1" d="M168.25,17.18a.31.31,0,0,1,.29-.33h0A.33.33,0,0,1,168.25,17.18Z"/><path class="cls-1" d="M168.67,16.79a.29.29,0,0,1,.26-.32h0A.33.33,0,0,1,168.67,16.79Z"/><path class="cls-1" d="M169,16.4a.29.29,0,0,1,.27-.31h0A.33.33,0,0,1,169,16.4Z"/></g></g></g></g></svg>