<svg xmlns="http://www.w3.org/2000/svg" viewBox="0 0 95.94 107.37"><defs><style>.cls-1{fill:#f6f6f6;}.cls-2{fill:#a0a0a0;}.cls-3{fill:#bdbdbd;}</style></defs><title>Asset 17</title><g id="Layer_2" data-name="Layer 2"><g id="MainPage"><g id="Content"><g id="Serviços"><g id="Icones"><path class="cls-1" d="M.07,95.32c-.07.51-.23,1.8.47,2.32C2.23,98.88,6.48,93.87,13.82,93a7.16,7.16,0,0,1,4.26.47c1.31.64,2.23,1.74,3.8,5.09,2.61,5.58,3,8.73,4.26,8.81.9,0,1.66-1.39,1.9-1.85,2.2-4.26,9.79-20.29,19.92-42.17-.51.3-9.09,5.21-18.08.77-8.19-4-9.75-12.41-9.9-13.29C17.49,55.73,1.06,88.1.07,95.32Z"/><path class="cls-1" d="M95.87,95.32c.07.51.23,1.8-.47,2.32-1.69,1.24-5.94-3.77-13.28-4.64a7.16,7.16,0,0,0-4.26.47c-1.31.64-2.23,1.74-3.8,5.09-2.61,5.58-3,8.73-4.26,8.81-.9,0-1.66-1.39-1.9-1.85C65.7,101.26,58.11,85.23,48,63.35c.51.3,9.09,5.21,18.08.77,8.19-4,9.75-12.41,9.9-13.29C78.45,55.73,94.88,88.1,95.87,95.32Z"/><path class="cls-2" d="M61,33.13a34.59,34.59,0,0,1-6.63,3.4,27.83,27.83,0,0,1-5.07,1.41,18.53,18.53,0,0,1-4.21.27,9.8,9.8,0,0,1-3.49-.79,5.3,5.3,0,0,1-2.11-1.6,4.59,4.59,0,0,1-1-2.53A7.36,7.36,0,0,1,39.15,30a14.5,14.5,0,0,1,2.15-3.59A25.16,25.16,0,0,1,45.83,22c.06,0,0,.08,0,.13h0a0,0,0,0,0,0,0h0s0,0,0,0h0a0,0,0,0,0,0,0h0a0,0,0,0,0,0,0h0a0,0,0,0,0,0,0h0a23.41,23.41,0,0,0-2.06,2.57,14,14,0,0,0-1.81,3.53,7.19,7.19,0,0,0-.37,2.44,4.47,4.47,0,0,0,1.91,3.6,7,7,0,0,0,2.51,1.1,13.8,13.8,0,0,0,4.15.33A30.62,30.62,0,0,0,58.74,34c.75-.27,1.49-.58,2.22-.88C61,33.08,61,33.08,61,33.13Z"/><path class="cls-1" d="M52.24,30.26A4.31,4.31,0,1,1,47.93,26a4.31,4.31,0,0,1,4.31,4.31Z"/><path class="cls-2" d="M45.63,22.73l.35-.38c.19-.2.38-.39.57-.6a.22.22,0,0,1,.26-.07,27,27,0,0,1,2.94.91,21.94,21.94,0,0,1,4.7,2.34,12.2,12.2,0,0,1,2.75,2.42,6.77,6.77,0,0,1,1.39,2.57A4.9,4.9,0,0,1,58,33.83a.38.38,0,0,1-.22.17,36.17,36.17,0,0,1-4.26,1.16H53.4c0-.1.08-.14.13-.2a5.47,5.47,0,0,0,1.18-2,4.82,4.82,0,0,0-.28-3.5,8.5,8.5,0,0,0-1.9-2.56,17.74,17.74,0,0,0-4.28-2.95c-.8-.41-1.61-.77-2.44-1.1Z"/><path class="cls-2" d="M56.8,26.47c-.26-.24-.48-.46-.71-.66a18.05,18.05,0,0,0-4-2.55,28.31,28.31,0,0,0-4.89-1.78L47,21.43l0,0a.2.2,0,0,1,.12-.08,10.91,10.91,0,0,1,3.25-1,5.61,5.61,0,0,1,3,.31,5,5,0,0,1,2.58,2.47,8.07,8.07,0,0,1,.79,2.54A4,4,0,0,1,56.8,26.47Z"/><path class="cls-2" d="M34.61,34.34a40.4,40.4,0,0,1,5-7,30.39,30.39,0,0,1,2.78-2.78s0,0,0,0l0,0,0,.06a22.18,22.18,0,0,0-1.92,2.31,14.13,14.13,0,0,0-1.63,2.88.54.54,0,0,1-.15.22,44.61,44.61,0,0,0-4,4.33l-.07.06S34.61,34.43,34.61,34.34Z"/><path class="cls-2" d="M42.78,26.77a.66.66,0,0,1,.12-.27,19.41,19.41,0,0,1,2.42-3.42.17.17,0,0,1,.22-.07,27.65,27.65,0,0,1,2.77,1.26s0,0,0,.06A15.22,15.22,0,0,0,42.78,26.77Z"/><path class="cls-2" d="M38,20.6a35,35,0,0,1,8,.88l-.47.37c-.19.15-.38.29-.55.45a.33.33,0,0,1-.38.06c-1-.38-2.06-.69-3.12-1S39.14,20.83,38,20.6Z"/><path class="cls-2" d="M54.76,36.75a16.8,16.8,0,0,1-3.32,1.43,26.25,26.25,0,0,1-4.29.93c-.7.1-1.39.17-2.09.21-.13,0-.27,0-.41,0a27.4,27.4,0,0,0,2.86-.78,3.66,3.66,0,0,1,.73-.16,23.79,23.79,0,0,0,4-.83c.83-.24,1.64-.53,2.45-.83C54.72,36.71,54.75,36.71,54.76,36.75Z"/><path class="cls-2" d="M53.51,40c.25-.82.5-1.65.71-2.48a.26.26,0,0,1,.12-.17l.49-.25a19.35,19.35,0,0,1-1.27,3S53.53,40,53.51,40Z"/><path class="cls-1" d="M45.85,22.08s0-.09,0-.12a1.92,1.92,0,0,1,.43-.32A2.85,2.85,0,0,1,45.85,22.08Z"/><path class="cls-1" d="M34.61,34.34c0,.09,0,0,.08,0a1.3,1.3,0,0,1-.31.39A1.81,1.81,0,0,1,34.61,34.34Z"/><path class="cls-1" d="M42.49,24.57l0-.06a.76.76,0,0,1,.3-.23A.73.73,0,0,1,42.49,24.57Z"/><path class="cls-1" d="M54.76,36.75s0,0-.07,0a.8.8,0,0,1,.34-.11A.74.74,0,0,1,54.76,36.75Z"/><path class="cls-1" d="M61,33.13s0,0-.07-.05a.85.85,0,0,1,.25-.13.05.05,0,0,1,.07,0h0A1,1,0,0,1,61,33.13Z"/><path class="cls-1" d="M42.42,24.53s0,0,0,0A0,0,0,0,1,42.42,24.53Z"/><path class="cls-1" d="M45.81,22.13s0,0,0,0h0S45.83,22.12,45.81,22.13Z"/><path class="cls-1" d="M45.64,22.31s0,0,0,0h0S45.66,22.31,45.64,22.31Z"/><path class="cls-1" d="M45.68,22.27s0,0,0,0h0S45.7,22.26,45.68,22.27Z"/><path class="cls-1" d="M45.73,22.22s0,0,0,0h0S45.75,22.22,45.73,22.22Z"/><path class="cls-1" d="M45.76,22.17s0,0,0,0h0S45.78,22.17,45.76,22.17Z"/><path class="cls-3" d="M48.19,0C30.22,0,18.29,16.14,18,30.17a31.2,31.2,0,0,0,8.56,20.66l.47.48a33.57,33.57,0,0,0,21.14,9c12.89.31,30.17-11.57,30.17-30.17A30.17,30.17,0,0,0,48.19,0Zm0,45.61A15.44,15.44,0,1,1,63.63,30.17,15.44,15.44,0,0,1,48.19,45.61Z"/></g></g></g></g></g></svg>