<svg xmlns="http://www.w3.org/2000/svg" viewBox="0 0 18.37 18.52"><defs><style>.cls-1{fill:#19192d;}</style></defs><title>Asset 19</title><g id="Layer_2" data-name="Layer 2"><g id="MainPage"><g id="Content"><g id="Contato_gray"><path class="cls-1" d="M17.58,10.48a9.8,9.8,0,0,0,.1-1.33A8.57,8.57,0,0,0,9.11.58,8.83,8.83,0,0,0,7.84.67,5.21,5.21,0,0,0,5.27,0,5.27,5.27,0,0,0,0,5.27,5.14,5.14,0,0,0,.65,7.79,7.64,7.64,0,0,0,.54,9.15a8.57,8.57,0,0,0,8.57,8.57,9.81,9.81,0,0,0,1.09-.07,5.27,5.27,0,0,0,7.38-7.17Zm-5.66,2.65A4.42,4.42,0,0,1,9,14a4.88,4.88,0,0,1-3-.8,1.92,1.92,0,0,1-1-1.56A.84.84,0,0,1,5.37,11,.88.88,0,0,1,6,10.72a1,1,0,0,1,.81.44,6.26,6.26,0,0,0,.72.81A2.27,2.27,0,0,0,9,12.41,2,2,0,0,0,10.3,12a1,1,0,0,0,.44-.84c0-.5-.3-.82-.91-1L7.41,9.59C5.88,9.2,5.12,8.34,5.12,7A2.46,2.46,0,0,1,6.31,4.81a4.66,4.66,0,0,1,2.55-.65,4.89,4.89,0,0,1,2.45.63c.79.44,1.19,1,1.19,1.56a.77.77,0,0,1-.29.62,1.08,1.08,0,0,1-.69.22,1,1,0,0,1-.73-.36,6.12,6.12,0,0,0-.68-.67A2.43,2.43,0,0,0,8.72,5.8a1.82,1.82,0,0,0-1.14.31,1,1,0,0,0-.4.8c0,.46.49.8,1.46,1l1.79.41c1.63.37,2.45,1.27,2.45,2.69A2.58,2.58,0,0,1,11.92,13.13Z"/></g></g></g></g></svg>