<svg xmlns="http://www.w3.org/2000/svg" viewBox="0 0 24 24.36"><defs><style>.cls-1{fill:#fff;}</style></defs><title>Asset 9</title><g id="Layer_2" data-name="Layer 2"><g id="MainPage"><g id="Content"><g id="Header_white"><path class="cls-1" d="M22.92,17.77c-1-1-3.81-3-5.68-3a2.15,2.15,0,0,0-1.13.28,6.14,6.14,0,0,1-2,1c-.19,0-.4-.18-.85-.58l-.07-.07a24,24,0,0,1-2-1.9l-.12-.14-.24-.25c-.42-.44-.73-.76-1.8-2L9,11c-.51-.59-.85-1-.87-1.26s.23-.72.85-1.55A3.38,3.38,0,0,0,9.1,4.55a16.24,16.24,0,0,0-2.17-3.2l-.07-.08A2.94,2.94,0,0,0,4.55,0,4.14,4.14,0,0,0,2.34.77l-.1.07A4.4,4.4,0,0,0,.3,3.09C-.11,4.36-.39,6,1.45,9.46a30.89,30.89,0,0,0,5.33,7.42,33.17,33.17,0,0,0,5.3,4.63c2.41,1.79,4.74,2.82,6.37,2.84a4.65,4.65,0,0,0,4.44-2C24.71,20.22,24,18.89,22.92,17.77Z"/></g></g></g></g></svg>