<svg xmlns="http://www.w3.org/2000/svg" viewBox="0 0 88.67 97.88"><defs><style>.cls-1,.cls-2{fill:none;stroke-linejoin:round;stroke-width:6.06px;}.cls-1{stroke:#1d1d1d;stroke-linecap:round;}.cls-2{stroke:#1f1f1f;}</style></defs><title>Asset 12</title><g id="Layer_2" data-name="Layer 2"><g id="MainPage"><g id="Content"><g id="Serviços"><g id="Icones_black_and_white"><circle cx="12.23" cy="12.23" r="12.23"/><line class="cls-1" x1="48.94" y1="36.7" x2="20.39" y2="36.7"/><path d="M24.47,93.66a4.22,4.22,0,0,1-4.21,4.22h0a4.23,4.23,0,0,1-4.21-3.94L14.27,67.15a2,2,0,0,0-2-1.9h0a2,2,0,0,0-2,1.9L8.42,93.94a4.23,4.23,0,0,1-4.21,3.94h0A4.22,4.22,0,0,1,0,93.66V40.78a8.15,8.15,0,0,1,8.16-8.15H32.63v8.15H28.55a4.08,4.08,0,0,0-4.08,4.08Z"/><polyline class="cls-2" points="32.63 61.17 85.64 61.17 85.64 12.23 32.63 12.23"/><line class="cls-1" x1="53.02" y1="12.23" x2="53.02" y2="8.16"/><line class="cls-1" x1="36.7" y1="93.8" x2="44.86" y2="61.17"/><line class="cls-1" x1="69.33" y1="93.8" x2="61.17" y2="61.17"/></g></g></g></g></g></svg>